<svg width="69" height="69" viewBox="0 0 69 69" fill="none" xmlns="http://www.w3.org/2000/svg">
<path d="M34.4869 32.6098C34.3549 32.6098 34.2223 32.559 34.1219 32.4571L2.8215 0.885971C2.67538 0.738846 2.632 0.517921 2.71184 0.326111C2.79187 0.134804 2.97896 0.00976562 3.18649 0.00976562H64.3097C64.5176 0.00976562 64.7049 0.134796 64.7847 0.326607C64.8646 0.51841 64.8209 0.739853 64.6743 0.886971L40.5279 25.1674L39.0186 26.7415C38.0675 27.7488 36.4698 27.7949 35.4595 26.8419C34.9705 26.38 34.6903 25.7548 34.6702 25.082C34.6506 24.4097 34.8947 23.769 35.3566 23.2799L37.5233 21.2257L54.183 4.46959H13.294L28.9817 20.5986C29.5511 21.2027 30.4966 21.2303 31.0946 20.6669C31.6927 20.103 31.7203 19.1575 31.1569 18.559L29.9568 17.1747L20.5992 7.74841C20.4531 7.60078 20.4093 7.38034 20.4894 7.18803C20.5692 6.99673 20.7565 6.87171 20.9642 6.87171H46.5312C46.7391 6.87171 46.9264 6.99674 47.0062 7.18855C47.0861 7.38086 47.0429 7.6018 46.8963 7.74892L40.0052 14.6816L39.0427 15.8591C38.5561 16.3753 37.931 16.655 37.2581 16.6735C36.5903 16.6876 35.9461 16.4476 35.4565 15.9847C34.4478 15.0296 34.4041 13.4314 35.3591 12.4226L35.9401 11.806L37.352 10.386H30.1446L31.6932 11.9431C31.893 12.145 31.892 12.4708 31.6907 12.6707C31.4888 12.8715 31.1634 12.87 30.9631 12.6687L28.5434 10.2339C28.3968 10.0863 28.3531 9.86584 28.4334 9.67403C28.5133 9.48172 28.7005 9.3567 28.9079 9.3567H38.5882C38.7961 9.3567 38.9834 9.48172 39.0632 9.67403C39.1431 9.86584 39.0994 10.0863 38.9533 10.2339L36.1068 13.1291C35.5414 13.7266 35.567 14.6721 36.164 15.2375C36.4532 15.5111 36.8354 15.6543 37.23 15.6447C37.6282 15.6342 37.9978 15.469 38.2714 15.1797L39.242 13.9932L45.295 7.90056H22.1996L30.7105 16.4757L31.9201 17.8691C32.8586 18.8648 32.8109 20.4625 31.8006 21.4151C30.7889 22.3686 29.1916 22.3209 28.2386 21.3096L11.7074 4.31393C11.5632 4.1658 11.5214 3.94538 11.6021 3.75507C11.6827 3.56427 11.8692 3.44073 12.0761 3.44073H55.4197C55.6276 3.44073 55.8149 3.56577 55.8947 3.75758C55.9746 3.94939 55.9309 4.17031 55.7843 4.31744L38.2418 21.9619L36.0847 24.0065C35.8311 24.2756 35.687 24.6542 35.6986 25.0524C35.7101 25.4506 35.8758 25.8201 36.1655 26.0938C36.4552 26.3669 36.8343 26.5131 37.232 26.4995C37.6302 26.4879 37.9998 26.3222 38.2734 26.0325L39.7923 24.4483L63.0725 1.03861H4.421L34.852 31.7331C35.0523 31.9349 35.0508 32.2603 34.849 32.4601C34.7491 32.5601 34.618 32.6098 34.4869 32.6098ZM68.4858 64.8332C68.3523 64.8332 68.2212 64.7814 68.1233 64.6835L43.8424 40.5372L42.2683 39.0278C41.7822 38.5689 41.5015 37.9437 41.4819 37.2714C41.4624 36.5986 41.7064 35.9584 42.1683 35.4688C43.1219 34.4586 44.7201 34.4129 45.7294 35.3654L47.784 37.5325L64.5402 54.1923V13.3033L48.4112 28.991C47.8076 29.5609 47.7795 30.5059 48.3429 31.1039C48.616 31.3936 48.9856 31.5593 49.3838 31.5719C49.7885 31.5864 50.1605 31.4398 50.4503 31.1662L51.8356 29.9656L61.2609 20.6081C61.409 20.462 61.6299 20.4194 61.8212 20.4992C62.013 20.579 62.1381 20.7663 62.1381 20.9737V46.5405C62.1381 46.7484 62.013 46.9357 61.8212 47.0155C61.6284 47.0953 61.408 47.0522 61.2609 46.905L54.3276 40.014L53.1507 39.0519C52.634 38.5654 52.3548 37.9397 52.3362 37.2674C52.3176 36.5946 52.5627 35.9549 53.0251 35.4663C53.4876 34.9777 54.1132 34.6976 54.7861 34.6795C55.4609 34.6529 56.0981 34.9054 56.5872 35.3684L57.2038 35.9498L58.6237 37.3608V30.1539L57.0662 31.7024C56.8643 31.9028 56.539 31.9013 56.3386 31.7004C56.1383 31.4986 56.1393 31.1727 56.3406 30.9729L58.7754 28.5532C58.923 28.406 59.1434 28.3629 59.3362 28.4432C59.5276 28.5225 59.6526 28.7098 59.6526 28.9177V38.5975C59.6526 38.8054 59.5276 38.9932 59.3362 39.072C59.1439 39.1523 58.9235 39.1097 58.7754 38.9626L55.8807 36.1165C55.5904 35.8424 55.2068 35.6897 54.8142 35.7083C54.416 35.7194 54.0459 35.8846 53.7723 36.1738C53.4986 36.4625 53.3535 36.8406 53.3646 37.2393C53.3756 37.637 53.5408 38.0075 53.83 38.2807L55.0165 39.2518L61.1092 45.3043V22.2089L52.5346 30.7198L51.1402 31.9294C50.6667 32.3763 50.0295 32.6193 49.3536 32.6002C48.6808 32.5801 48.0562 32.3 47.5942 31.8094C46.6417 30.7986 46.6889 29.2014 47.6997 28.2484L64.6958 11.7167C64.8445 11.572 65.0649 11.5304 65.2547 11.6117C65.4455 11.692 65.569 11.8788 65.569 12.0857V55.429C65.569 55.6374 65.444 55.8247 65.2522 55.904C65.0604 55.9838 64.839 55.9412 64.6923 55.794L47.0479 38.251L45.0033 36.0934C44.4254 35.5491 43.4799 35.5768 42.916 36.1753C42.6428 36.4645 42.4987 36.8431 42.5103 37.2418C42.5218 37.6395 42.6875 38.0095 42.9773 38.2827L44.5609 39.8011L67.9712 63.0818V4.43041L37.2767 34.8618C37.0754 35.0621 36.7495 35.0611 36.5496 34.8587C36.3493 34.6564 36.3508 34.331 36.5527 34.1312L68.1233 2.83067C68.2709 2.68456 68.4924 2.64186 68.6837 2.7212C68.8755 2.80103 69 2.98833 69 3.19571V64.319C69 64.5269 68.875 64.7142 68.6832 64.794C68.6194 64.8201 68.5521 64.8332 68.4858 64.8332ZM0.514468 66.3375C0.447787 66.3375 0.380504 66.3239 0.316585 66.2973C0.124977 66.2175 0 66.0302 0 65.8228V4.70005C0 4.49217 0.125179 4.3049 0.317189 4.22456C0.508997 4.14673 0.730228 4.18891 0.876947 4.33553L25.1581 28.4819L26.7322 29.9912C27.7395 30.9417 27.7857 32.54 26.8327 33.5502C25.8786 34.56 24.2814 34.6067 23.2706 33.6532L21.2164 31.4865L4.46021 14.8268V55.7157L20.589 40.0275C20.8848 39.7494 21.0507 39.3798 21.0625 38.9821C21.074 38.5834 20.9303 38.2049 20.6575 37.9151C20.0933 37.3171 19.1478 37.289 18.5499 37.8529L17.165 39.0539L7.73949 48.4109C7.59202 48.5575 7.37054 48.6002 7.17933 48.5204C6.98747 48.4405 6.86274 48.2532 6.86274 48.0459V22.478C6.86274 22.2702 6.98767 22.0829 7.17933 22.0035C7.37114 21.9232 7.59217 21.9664 7.73969 22.1135L14.6724 29.0046L15.8498 29.9666C16.8863 30.9462 16.93 32.5435 15.9754 33.5532C15.0204 34.561 13.4229 34.6057 12.4133 33.6507L11.7967 33.0697L10.3766 31.6588V38.8651L11.9345 37.3171C12.136 37.1163 12.4614 37.1178 12.662 37.3191C12.8622 37.5205 12.8613 37.8463 12.6596 38.0462L10.2248 40.4664C10.0773 40.613 9.85622 40.6557 9.66461 40.5764C9.47295 40.497 9.34782 40.3097 9.34782 40.1019V30.422C9.34782 30.2136 9.47295 30.0264 9.66461 29.947C9.85742 29.8672 10.0775 29.9104 10.2248 30.057L13.1196 32.903C13.7179 33.4684 14.6632 33.4423 15.2283 32.8458C15.7932 32.2487 15.7669 31.3032 15.1702 30.7384L13.9838 29.7673L7.89148 23.7142V46.8102L16.4657 38.2998L17.8603 37.0897C18.8553 36.1517 20.4533 36.1984 21.4057 37.2097C21.8672 37.6992 22.1108 38.3394 22.0907 39.0118C22.0711 39.6851 21.7904 40.3097 21.3004 40.7707L4.3043 57.3024C4.15623 57.4475 3.93555 57.4892 3.7457 57.4073C3.55504 57.327 3.43127 57.1407 3.43127 56.9338V13.59C3.43127 13.3822 3.55625 13.1949 3.74826 13.115C3.94027 13.0357 4.1613 13.0789 4.30862 13.2255L21.9526 30.7685L23.9972 32.9256C24.5746 33.4684 25.5196 33.4418 26.084 32.8442C26.6479 32.2462 26.6208 31.3007 26.0227 30.7369L24.4391 29.2174L1.02879 5.93676V64.5886L31.7233 34.1578C31.9251 33.9579 32.2515 33.9594 32.4509 34.1608C32.6507 34.3626 32.6497 34.688 32.4478 34.8884L0.876545 66.1879C0.778482 66.2858 0.647278 66.3375 0.514468 66.3375ZM65.8136 69.0098H4.69068C4.48316 69.0098 4.29547 68.8847 4.21583 68.6924C4.13584 68.5006 4.17938 68.2797 4.32589 68.1326L28.4726 43.8517L29.9819 42.278C30.4409 41.7915 31.066 41.5108 31.7389 41.4917C32.4092 41.4646 33.0514 41.7157 33.541 42.1771C34.5512 43.1306 34.5974 44.7284 33.6444 45.7396L31.4778 47.7933L15.7165 64.55H54.8092L40.0082 48.4099C39.7401 48.1252 39.3705 47.9595 38.9724 47.9474C38.5852 47.9369 38.1956 48.0795 37.9059 48.3527C37.6161 48.6258 37.4499 48.9954 37.4379 49.3935C37.4263 49.7912 37.5699 50.1703 37.8431 50.46L39.0442 51.8444L48.4016 61.2706C48.5477 61.4178 48.5909 61.6387 48.5111 61.8305C48.4313 62.0218 48.244 62.1468 48.0361 62.1468H22.4688C22.2614 62.1468 22.0741 62.0218 21.9938 61.8305C21.9139 61.6382 21.9576 61.4173 22.1042 61.2701L28.9953 54.3374L29.9573 53.1594C30.937 52.1231 32.5347 52.0799 33.5435 53.0344C34.0325 53.4973 34.3117 54.1225 34.3303 54.7953C34.3484 55.4682 34.1043 56.1079 33.6414 56.5964L33.0604 57.213L31.6485 58.633H38.8559L37.3073 57.0754C37.107 56.8741 37.108 56.5477 37.3099 56.3479C37.5112 56.147 37.8366 56.1485 38.0374 56.3499L40.4571 58.7852C40.6037 58.9328 40.6469 59.1532 40.5671 59.345C40.4873 59.5368 40.3 59.6618 40.0921 59.6618H30.4123C30.2044 59.6618 30.0171 59.5368 29.9373 59.345C29.8574 59.1532 29.9006 58.9323 30.0472 58.7852L32.8932 55.8899C33.1679 55.6002 33.313 55.2216 33.3014 54.8234C33.2909 54.4253 33.1257 54.0552 32.8365 53.782C32.2395 53.2157 31.294 53.2428 30.7286 53.8393L29.758 55.0258L23.705 61.1185H46.8009L38.29 52.5438L37.0804 51.1499C36.633 50.6759 36.39 50.0352 36.4096 49.3629C36.4296 48.6901 36.7103 48.0659 37.1999 47.604C37.6905 47.143 38.3322 46.906 39.0025 46.9191C39.6753 46.9392 40.3 47.2194 40.7619 47.7094L56.3577 64.7167C56.4958 64.8668 56.5319 65.0842 56.4496 65.2715C56.3677 65.4583 56.183 65.5788 55.9786 65.5788H14.5263C14.3211 65.5788 14.1356 65.4568 14.0542 65.268C13.9728 65.0797 14.0112 64.8613 14.1517 64.7116L30.7487 47.0677L32.9158 45.0131C33.4596 44.4351 33.4325 43.4901 32.8345 42.9258C32.5453 42.6521 32.1621 42.505 31.7685 42.52C31.3703 42.5311 31.0007 42.6973 30.7276 42.987L29.2087 44.5702L5.92795 67.9809H64.5794L34.148 37.2865C33.9482 37.0846 33.9497 36.7588 34.151 36.5589C34.3529 36.3596 34.6793 36.3606 34.8786 36.5619L66.1791 68.1331C66.3252 68.2807 66.3684 68.5011 66.2886 68.6929C66.2087 68.8847 66.0214 69.0098 65.8136 69.0098Z" fill="white"/>
</svg>
