<svg width="69" height="69" viewBox="0 0 69 69" fill="none" xmlns="http://www.w3.org/2000/svg">
<path d="M44.2842 34.5098L34.5 44.294L24.7158 34.5098L34.5 24.7256L44.2842 34.5098ZM46.0783 11.5875L23.156 34.5098L33.7204 45.0742L32.846 45.9481L21.4077 34.5098L45.2038 10.7136L44.4242 9.93348L19.8485 34.5098L32.0664 46.7277L31.1919 47.6027L18.0991 34.5098L43.5498 9.0596L42.7702 8.27943L16.9297 34.12L16.5399 34.5098L30.4123 48.3822L29.5379 49.2562L14.7915 34.5098L41.8958 7.40501L41.1162 6.62539L13.2318 34.5098L28.7583 50.0359L27.8838 50.9107L11.4829 34.5098L40.2417 5.75096L39.4621 4.97134L9.9237 34.5098L27.1042 51.6903L26.2298 52.5643L8.17538 34.5098L38.5877 4.09692L37.8081 3.31731L6.61561 34.5098L25.4502 53.344L24.5757 54.2188L4.86674 34.5098L36.9336 2.44287L36.154 1.66326L3.30753 34.5098L23.7961 54.9984L22.9217 55.8724L1.55921 34.5098L35.2796 0.789383L34.5 0.00976562L0 34.5098L22.9217 57.4321L45.844 34.5098L35.2796 23.9454L36.154 23.0716L47.5923 34.5098L23.7961 58.3061L24.5757 59.0855L49.1515 34.5098L36.9336 22.292L37.8081 21.4175L50.9004 34.5104L25.4502 59.9602L26.2298 60.7402L52.4596 34.5104L38.5877 20.6379L39.4621 19.7635L54.2084 34.5098L27.1042 61.6142L27.8838 62.3936L55.7677 34.5098L40.2417 18.9839L41.1162 18.1094L57.5165 34.5104L28.7583 63.2686L29.5379 64.0483L59.0758 34.5104L41.8958 17.3298L42.7702 16.4554L60.8246 34.5098L30.4123 64.9223L31.1919 65.7017L62.3838 34.5098L43.5498 15.6758L44.4242 14.8013L64.1327 34.5104L32.0664 66.5767L32.846 67.3564L65.6919 34.5104L45.2038 14.0217L46.0783 13.1473L67.4408 34.5098L33.7204 68.2304L34.5 69.0098L69 34.5098L46.0783 11.5875Z" fill="#DB761E"/>
</svg>
