<svg width="80" height="69" viewBox="0 0 80 69" fill="none" xmlns="http://www.w3.org/2000/svg">
<path d="M37.3046 45.5164L39.9515 40.95L42.5991 45.5164H37.3046ZM2.1501 67.7733L40 2.48275L78.566 69.0098H80L40 0.00976701L0 69.0098H57.6522L39.9515 38.477L35.1542 46.7529H43.3161L44.7495 49.2259H31.4296L39.9515 34.5246L59.9429 69.0098H61.3769L39.9515 32.0516L29.2792 50.4624H45.4665L46.8998 52.9354H25.6502L40 28.1826L63.6675 69.0098H65.1015L40 25.7096L23.5001 54.1719H47.6168L49.0508 56.6448H19.7752L40 21.7578L67.3921 69.0098H68.8261L40 19.2848L17.6251 57.8813H49.7672L51.2006 60.3543H13.9004L40 15.3324L71.1168 69.0098H72.5507L40 12.8594L11.75 61.5908H51.9175L53.3515 64.0638H8.02515L40 8.90756L74.8414 69.0098H76.2754L40 6.43458L5.87473 65.3003H54.0685L55.5019 67.7733H2.1501Z" fill="#DB761E"/>
</svg>
