<svg width="79" height="69" viewBox="0 0 79 69" fill="none" xmlns="http://www.w3.org/2000/svg">
<path d="M40.9179 34.9624C40.669 34.9619 40.4683 34.7586 40.4688 34.5088C40.4693 34.259 40.671 34.0572 40.9189 34.0572C40.9194 34.0572 40.9194 34.0572 40.9199 34.0572L43.791 34.0636C43.5415 33.7307 43.3762 33.3261 43.3374 32.8923C43.2877 32.3135 43.4692 31.7565 43.8352 31.3623C44.1786 30.9918 44.646 30.8013 45.1605 30.8008L46.5341 30.8023L72.5489 30.7434L59.2672 7.6107L49.7706 24.0631L49.2629 25.0173C48.9574 25.55 49.1567 26.3172 49.6904 26.7065C49.9556 26.8994 50.2562 26.9722 50.539 26.9118C50.7816 26.8599 50.9774 26.7145 51.1053 26.4923L51.8348 25.136L59.0473 12.6389C59.1275 12.4994 59.2756 12.4134 59.4365 12.4134H59.437C59.5973 12.4134 59.7454 12.5004 59.8266 12.6399L68.4962 27.7438C68.5764 27.8838 68.5764 28.0555 68.4967 28.1959C68.416 28.3359 68.268 28.422 68.1076 28.4225L58.7221 28.4438L56.6343 28.4804C56.6274 28.4804 56.62 28.4804 56.6127 28.4804C55.5648 28.4804 54.6173 27.5855 54.4929 26.475C54.4269 25.8983 54.5927 25.3348 54.9479 24.9292C55.28 24.5488 55.7449 24.3351 56.256 24.3282L57.2438 24.3035L62.1097 24.2926L59.6032 19.9287L58.3384 22.1196C58.2135 22.3357 57.939 22.4099 57.723 22.2843C57.5085 22.1586 57.4347 21.8811 57.5597 21.6655L59.2146 18.7979C59.2953 18.6584 59.4433 18.5728 59.6037 18.5728C59.6042 18.5728 59.6042 18.5728 59.6042 18.5728C59.7651 18.5728 59.9137 18.6589 59.9939 18.7989L63.2786 24.5177C63.3588 24.6572 63.3588 24.8293 63.2786 24.9698C63.1984 25.1098 63.0498 25.1963 62.8895 25.1968L56.2732 25.2334C56.015 25.2374 55.7862 25.3418 55.6239 25.5273C55.434 25.7439 55.3498 26.0442 55.3872 26.3721C55.461 27.0315 56.0184 27.591 56.6215 27.5752L58.7133 27.5386L67.3279 27.5193L59.4355 13.7697L52.62 25.5782L51.8909 26.9336C51.6297 27.3887 51.2184 27.6919 50.727 27.7968C50.2021 27.911 49.6314 27.7799 49.1626 27.4401C48.2411 26.7674 47.9401 25.5104 48.4763 24.578L48.984 23.6218L58.8791 6.4804C58.9598 6.3409 59.1078 6.25484 59.2682 6.25484C59.2687 6.25484 59.2687 6.25484 59.2687 6.25484C59.4296 6.25484 59.5782 6.3409 59.6583 6.48139L73.7173 30.9675C73.7975 31.1075 73.7975 31.2797 73.7178 31.4197C73.6376 31.5596 73.4891 31.6462 73.3287 31.6467L46.5346 31.7075L45.1527 31.7056C44.8924 31.7021 44.6632 31.7956 44.4939 31.9796C44.2982 32.1898 44.2066 32.4861 44.2342 32.8126C44.2927 33.471 44.8491 34.0369 45.4483 34.0458L48.2347 34.0359L77.7695 33.9686L59.0995 1.45318L40.9632 32.8749C40.8388 33.0911 40.5628 33.1658 40.3478 33.0397C40.1328 32.914 40.0595 32.637 40.1845 32.4208L41.2589 30.5584C40.8511 30.6064 40.4235 30.5446 40.026 30.3591C39.5026 30.1133 39.1135 29.6765 38.9565 29.16C38.8094 28.6768 38.8729 28.1678 39.1351 27.7265L39.8224 26.5314L52.7804 3.84831L26.216 3.84683L35.6373 20.3442L36.2065 21.2613C36.512 21.7951 37.2711 22.0048 37.8728 21.7347C38.1684 21.6007 38.3878 21.3687 38.4754 21.0971C38.5512 20.8601 38.5241 20.6173 38.3962 20.3952L37.5929 19.0814L30.435 6.55213C30.3553 6.41214 30.3553 6.2395 30.4359 6.10001C30.5166 5.96051 30.6647 5.87394 30.8256 5.87394L48.1708 5.87741C48.3312 5.87741 48.4802 5.96348 48.5604 6.10298C48.6406 6.24247 48.6411 6.4151 48.5609 6.55509L43.8869 14.7378L42.8735 16.5754C42.3569 17.5009 41.1019 17.8872 40.0757 17.4376C39.5459 17.2061 39.144 16.7797 38.9723 16.2677C38.8109 15.7874 38.8596 15.2764 39.1095 14.8283L39.5798 13.9557L42.0057 9.713L36.9922 9.71449L38.2486 11.9103C38.3721 12.1274 38.2978 12.4035 38.0823 12.5281C37.8669 12.6523 37.5919 12.5786 37.4679 12.3609L35.8243 9.48694C35.7441 9.34744 35.7446 9.17481 35.8248 9.03482C35.9055 8.89533 36.054 8.80926 36.2144 8.80926L42.7839 8.80777C42.9443 8.80777 43.0929 8.89384 43.1735 9.03383C43.2537 9.17333 43.2542 9.34596 43.174 9.48595L40.366 14.3974L39.8981 15.2651C39.7712 15.4921 39.7461 15.7439 39.8248 15.9784C39.9168 16.2524 40.1333 16.476 40.4349 16.6076C41.0395 16.8727 41.7961 16.6551 42.0873 16.1342L43.1032 14.2931L47.393 6.78264L31.6033 6.77917L38.3667 18.6193L39.1691 19.9312C39.4308 20.3853 39.4864 20.8938 39.3319 21.3751C39.1666 21.89 38.7691 22.3219 38.2408 22.5608C37.219 23.0218 35.961 22.6464 35.4342 21.7268L34.8645 20.8092L25.0481 3.62029C24.9684 3.4798 24.9684 3.30765 25.0491 3.16766C25.1293 3.02817 25.2778 2.94161 25.4387 2.94161L53.5577 2.94308C53.7185 2.94308 53.8671 3.02966 53.9473 3.16915C54.028 3.30914 54.028 3.48129 53.9483 3.62128L39.9109 28.1861C39.7756 28.4131 39.7442 28.6565 39.8175 28.8954C39.9001 29.1675 40.1146 29.4019 40.4063 29.5385C41.0021 29.8165 41.7671 29.6146 42.074 29.0982L43.4579 26.6675L58.1692 0.914497H20.8286L38.8257 32.4223C38.9492 32.6395 38.8754 32.916 38.6594 33.0406C38.4439 33.1643 38.1689 33.0906 38.045 32.8735L36.9764 31.0031C36.8136 31.3825 36.5465 31.7239 36.1888 31.9771C35.7151 32.31 35.1444 32.4297 34.621 32.3086C34.1305 32.1948 33.7236 31.8846 33.4752 31.4355L32.7894 30.2399L19.7326 7.61416L6.4479 30.7464L25.3679 30.7899L26.4423 30.7548C27.0548 30.7548 27.6166 30.1978 27.684 29.539C27.7164 29.215 27.6259 28.9078 27.436 28.6956C27.2702 28.5116 27.0479 28.4146 26.7935 28.4146C26.793 28.4146 26.7926 28.4146 26.7916 28.4146L25.2587 28.4561L10.8873 28.4245C10.7269 28.424 10.5783 28.3374 10.4981 28.1974C10.418 28.0574 10.4184 27.8848 10.4986 27.7453L19.1757 12.6434C19.2559 12.5034 19.4039 12.4173 19.5648 12.4173C19.5648 12.4173 19.5648 12.4173 19.5653 12.4173C19.7257 12.4173 19.8742 12.5029 19.9544 12.6424L24.6654 20.8038L25.7393 22.6048C26.2804 23.5175 25.9858 24.8036 25.0835 25.4724C24.6196 25.8181 24.0514 25.9556 23.524 25.8478C23.0306 25.7479 22.6149 25.4501 22.3547 25.0094L21.8376 24.1635L19.3966 19.9302L16.8901 24.2951L19.4089 24.3C19.6578 24.3005 19.8585 24.5033 19.8585 24.7536C19.858 25.0034 19.6563 25.2052 19.4084 25.2052C19.4079 25.2052 19.4074 25.2052 19.4074 25.2052L16.1103 25.1993C15.9494 25.1988 15.8009 25.1127 15.7207 24.9728C15.641 24.8323 15.641 24.6601 15.7212 24.5201L19.0055 18.8004C19.0861 18.6604 19.2347 18.5738 19.3951 18.5738C19.3956 18.5738 19.3956 18.5738 19.3956 18.5738C19.5559 18.5738 19.7045 18.6599 19.7852 18.7994L22.6105 23.699L23.1246 24.5409C23.2574 24.765 23.4611 24.9114 23.7016 24.9609C23.9845 25.0183 24.2846 24.9411 24.5488 24.7447C25.0806 24.3505 25.2714 23.5837 24.9669 23.0698L23.89 21.2633L19.5663 13.7727L11.6675 27.5207L25.2473 27.5509L26.7793 27.5089C26.7803 27.5089 26.7817 27.5089 26.7832 27.5089C27.3022 27.5089 27.7676 27.7147 28.1036 28.0886C28.4647 28.4903 28.6379 29.0527 28.5788 29.631C28.4647 30.7499 27.5133 31.6596 26.4575 31.6596C26.457 31.6596 26.457 31.6596 26.4565 31.6596L25.3811 31.6947L5.66816 31.6502C5.50729 31.6497 5.35922 31.5636 5.27903 31.4236C5.19884 31.2831 5.19884 31.111 5.27903 30.971L19.342 6.48436C19.4221 6.34387 19.5702 6.25829 19.7311 6.25829C19.7316 6.25829 19.7316 6.25829 19.7316 6.25829C19.892 6.25829 20.04 6.34338 20.1207 6.48337L34.2584 30.9893C34.3868 31.2213 34.5811 31.3702 34.8232 31.4266C35.0987 31.4909 35.4086 31.4211 35.6723 31.2361C36.2178 30.8493 36.422 30.0984 36.1254 29.5627L34.7238 27.1408L19.8988 1.45467L1.2283 33.9716L38.2078 34.0592C38.4567 34.0596 38.6574 34.263 38.6569 34.5123C38.6564 34.7621 38.4552 34.9644 38.2068 34.9644C38.2063 34.9644 38.2063 34.9644 38.2058 34.9644L35.2202 34.957C35.4637 35.2874 35.6236 35.69 35.6634 36.1263C35.7121 36.7071 35.5301 37.2645 35.1646 37.6588C34.8212 38.0278 34.3509 38.2212 33.8412 38.2192L32.4657 38.2187L6.45037 38.2761L19.7326 61.4104L29.2312 44.957L29.7364 44.0028C30.0429 43.4691 29.8446 42.7013 29.3113 42.3145C29.0477 42.1236 28.7362 42.0494 28.4598 42.1082C28.2182 42.1612 28.0234 42.3061 27.8965 42.5282L27.1659 43.8841L19.9515 56.3826C19.8708 56.5221 19.7222 56.6077 19.5619 56.6077H19.5614C19.401 56.6077 19.2524 56.5211 19.1722 56.3817L10.5055 41.2757C10.4253 41.1353 10.4253 40.9631 10.505 40.8231C10.5852 40.6826 10.7338 40.5966 10.8942 40.5961L20.2776 40.5753L22.3655 40.5392C22.3729 40.5392 22.3802 40.5392 22.3881 40.5392C23.4365 40.5392 24.384 41.434 24.5089 42.5445C24.5743 43.1213 24.4081 43.6847 24.0524 44.0908C23.7188 44.4707 23.2539 44.6835 22.7433 44.6899L21.7589 44.7171L16.8896 44.7265L19.3966 49.0918L20.6609 46.9C20.7858 46.6839 21.0618 46.6101 21.2758 46.7353C21.4913 46.8609 21.5646 47.1379 21.4396 47.3541L19.7852 50.2225C19.7045 50.363 19.5559 50.4483 19.3956 50.4483C19.3956 50.4483 19.3956 50.4483 19.3951 50.4483C19.2347 50.4483 19.0861 50.3626 19.0055 50.2222L15.7212 44.5019C15.641 44.3619 15.641 44.1898 15.7207 44.0498C15.8009 43.9098 15.9494 43.8232 16.1103 43.8227L21.7451 43.8119L22.7256 43.7847C22.9853 43.7812 23.2141 43.6773 23.3769 43.4918C23.5673 43.2752 23.6514 42.9749 23.6141 42.6474C23.5398 41.9876 22.9662 41.4415 22.3783 41.4444L20.286 41.4805L11.6734 41.4998L19.5633 55.2509L26.3808 43.4409L27.1108 42.0865C27.3701 41.6329 27.7794 41.3302 28.2699 41.2238C28.7963 41.1095 29.3669 41.2391 29.8382 41.5805C30.7439 42.2383 31.0514 43.522 30.5235 44.4421L30.0178 45.3977L20.1207 62.5412C20.04 62.6806 19.892 62.7666 19.7316 62.7666H19.7311C19.5702 62.7666 19.4221 62.6797 19.342 62.5402L5.28198 38.0515C5.20179 37.9116 5.20179 37.7394 5.28149 37.5994C5.36217 37.4594 5.51024 37.3729 5.67111 37.3724L32.4652 37.314L33.8481 37.3145C34.1049 37.3209 34.3366 37.224 34.5059 37.0415C34.6987 36.8337 34.7941 36.5295 34.7666 36.206C34.7061 35.5372 34.1615 34.9842 33.552 34.9748L30.766 34.9856L1.2283 35.0509L19.8998 67.5673L37.8177 36.528C37.9426 36.3118 38.2176 36.2381 38.4326 36.3633C38.6481 36.4889 38.7209 36.7659 38.5959 36.9821L37.7375 38.47C38.1512 38.4206 38.5817 38.4775 38.9747 38.6605C39.4972 38.9058 39.8868 39.3426 40.0442 39.859C40.1913 40.3438 40.1279 40.8528 39.8647 41.2935L39.1764 42.4891L26.2204 65.1723H52.7843L43.3625 48.6767L42.7943 47.7572C42.4892 47.2254 41.7282 47.0152 41.1255 47.2853C40.8309 47.4179 40.6115 47.6499 40.5239 47.922C40.4486 48.1564 40.4767 48.4063 40.6016 48.6249L41.4065 49.9368L48.5644 62.465C48.6445 62.6055 48.6441 62.7777 48.5639 62.9175C48.4832 63.0576 48.3346 63.1436 48.1742 63.1436H30.8285C30.6681 63.1436 30.5196 63.0576 30.4389 62.9175C30.3587 62.7777 30.3582 62.6055 30.4384 62.465L35.1139 54.2813L36.1254 52.4447C36.6454 51.5197 37.9013 51.1348 38.9246 51.5829C39.4544 51.815 39.8573 52.2418 40.029 52.7542C40.1899 53.233 40.1412 53.7441 39.8922 54.1913L39.4185 55.0644L36.9951 59.3052H42.0076L40.7536 57.1088C40.6297 56.8921 40.7039 56.6151 40.9194 56.491C41.1354 56.3668 41.4104 56.441 41.5344 56.6582L43.175 59.5326C43.2552 59.6727 43.2547 59.8453 43.174 59.9848C43.0939 60.1242 42.9453 60.2102 42.7849 60.2102H36.2174C36.057 60.2102 35.9084 60.1242 35.8277 59.9848C35.7475 59.8453 35.747 59.6727 35.8272 59.5326L39.1041 53.753C39.2296 53.5279 39.2542 53.2771 39.1764 53.0437C39.084 52.7691 38.867 52.5455 38.5654 52.413C37.9618 52.1489 37.2037 52.3651 36.911 52.8864L35.8986 54.7261L31.6063 62.238H47.3965L40.6331 50.3997L39.8293 49.0883C39.5675 48.6342 39.5129 48.1243 39.6674 47.6436C39.8332 47.1286 40.2307 46.6967 40.7581 46.4588C41.7818 46.0002 43.0407 46.3742 43.5671 47.2929L44.1353 48.2128L53.9527 65.3993C54.0324 65.5392 54.0324 65.712 53.9517 65.8515C53.871 65.9908 53.7225 66.0774 53.5621 66.0774H25.4426C25.2823 66.0774 25.1337 65.9908 25.053 65.8515C24.9723 65.712 24.9723 65.5392 25.052 65.3993L39.0894 40.8335C39.2232 40.6099 39.2551 40.3601 39.1833 40.1237C39.1007 39.8526 38.8862 39.6181 38.595 39.4821C37.9982 39.2031 37.2337 39.4044 36.9258 39.9199L35.5409 42.3536L20.8311 68.1051H58.1717L40.2371 36.709C40.1131 36.4929 40.1879 36.2159 40.4034 36.0912C40.6188 35.9671 40.8938 36.0408 41.0178 36.2584L42.0283 38.0268C42.1906 37.6415 42.4573 37.2937 42.8129 37.0429C43.2862 36.7105 43.8579 36.5903 44.3798 36.7115C44.8698 36.8248 45.2766 37.1349 45.5246 37.5846L46.2104 38.7817L59.2687 61.4054L72.5524 38.2732L53.6339 38.2301L52.557 38.2647C51.9465 38.2652 51.3842 38.8222 51.3163 39.4821C51.2829 39.8051 51.3734 40.1128 51.5638 40.3245C51.7276 40.5065 51.9559 40.607 52.2067 40.607C52.2072 40.607 52.2077 40.607 52.2077 40.607L53.7402 40.5624L68.1101 40.5946C68.2709 40.5951 68.419 40.6812 68.4992 40.8216C68.5794 40.9616 68.5794 41.1338 68.4987 41.2738L59.8266 56.3776C59.7454 56.5177 59.5973 56.6042 59.437 56.6042H59.4365C59.2756 56.6042 59.1275 56.5183 59.0473 56.3787L54.3354 48.2159L53.26 46.4153C52.7213 45.5016 53.017 44.2155 53.9183 43.5467C54.3817 43.2019 54.9499 43.0649 55.4777 43.1718C55.9712 43.2717 56.3859 43.569 56.6471 44.0102L57.1622 44.8581L59.6042 49.0889L62.1102 44.724L59.59 44.7181C59.3415 44.7181 59.1403 44.5143 59.1413 44.2645C59.1418 44.0157 59.343 43.8129 59.5909 43.8129C59.5914 43.8129 59.5919 43.8129 59.5924 43.8129L62.8895 43.8208C63.0498 43.8213 63.1984 43.9073 63.2786 44.0473C63.3588 44.1873 63.3588 44.3594 63.2786 44.4994L59.9953 50.2191C59.9151 50.3586 59.7666 50.4457 59.6062 50.4457H59.6057C59.4453 50.4457 59.2968 50.3598 59.2161 50.2202L56.3893 45.3211L55.8762 44.4777C55.7444 44.2546 55.5407 44.1077 55.2997 44.0587C55.0168 44.0008 54.7167 44.0785 54.453 44.2749C53.9222 44.6691 53.7298 45.4368 54.0329 45.9518L55.1112 47.7552L59.4355 55.2484L67.3303 41.4983L53.752 41.4677L52.2215 41.5122C52.221 41.5122 52.2195 41.5122 52.2186 41.5122C51.6976 41.5122 51.2327 41.3059 50.8957 40.9315C50.5351 40.5303 50.3615 39.9679 50.4205 39.3891C50.5371 38.2697 51.4885 37.36 52.5428 37.36L53.6206 37.3249L73.3321 37.3699C73.4925 37.3704 73.6411 37.4565 73.7208 37.5965C73.801 37.7365 73.801 37.9091 73.7208 38.0486L59.6598 62.5351C59.5796 62.6747 59.4311 62.7612 59.2707 62.7612H59.2702C59.1093 62.7612 58.9613 62.6756 58.8806 62.5361L44.7409 38.0298C44.613 37.7978 44.4192 37.6494 44.1771 37.593C43.9011 37.5292 43.5927 37.5989 43.329 37.7839C42.7918 38.1638 42.5822 38.9306 42.8735 39.4569L44.276 41.8792L59.101 67.5644L77.7715 35.049M58.9494 69.0098H20.0538C19.9446 69.0098 19.8418 68.9707 19.7616 68.9016C19.6563 68.8677 19.5663 68.7957 19.5092 68.6971L0.0599114 34.8259C0.00481284 34.7294 -0.0123954 34.6176 0.00875854 34.5113C-0.0123954 34.4049 0.00481284 34.2931 0.0599114 34.1962L19.5077 0.32486C19.5638 0.227905 19.6514 0.157173 19.7532 0.122551C19.8349 0.0508194 19.9397 0.00976562 20.0513 0.00976562H58.947C59.0567 0.00976562 59.161 0.0498276 59.2417 0.119576C59.345 0.154205 59.4345 0.225426 59.4901 0.322876L78.9379 34.1932C78.993 34.2892 79.0107 34.3995 78.9905 34.5048C79.0127 34.6127 78.996 34.726 78.9399 34.8244L59.4921 68.6936C59.437 68.7903 59.3499 68.8604 59.2485 68.8955C59.1674 68.9682 59.0611 69.0098 58.9494 69.0098Z" fill="white"/>
</svg>
