<svg width="63" height="69" viewBox="0 0 63 69" fill="none" xmlns="http://www.w3.org/2000/svg">
<path d="M16.9888 8.72372C7.78065 13.5171 0.181655 17.4914 0.107155 17.5585C0.0326548 17.6256 -0.0120451 24.8089 0.00285486 36.0874L0.0475548 54.4955L2.05905 53.4348C3.16165 52.8574 4.11525 52.374 4.17485 52.374C4.23445 52.374 4.30895 53.3676 4.32385 54.576L4.36855 56.7914L6.66315 55.583C7.91475 54.9251 8.97265 54.388 9.00245 54.388C9.03225 54.388 9.07695 55.4622 9.09185 56.7914L9.13655 59.1948L11.297 58.067C12.489 57.4493 13.5022 56.9391 13.5767 56.9391C13.6363 56.9391 13.681 57.9998 13.681 59.2888C13.681 60.5778 13.7257 61.6385 13.7704 61.6385C13.8151 61.6385 14.7687 61.1551 15.8862 60.5778C17.0186 59.987 18.0467 59.4634 18.1957 59.4096C18.4341 59.3291 18.449 59.5036 18.449 61.6922C18.449 62.9946 18.4788 64.0553 18.5384 64.0553C18.5831 64.0553 19.5367 63.5719 20.6542 62.9946C21.7717 62.4038 22.8147 61.8802 22.9637 61.8265C23.2021 61.7459 23.217 61.907 23.217 64.109C23.217 65.4114 23.2468 66.4721 23.2915 66.4721C23.3213 66.4721 24.3494 65.9619 25.5563 65.3308L27.7615 64.1896L27.836 66.593L27.9105 69.0098L29.1025 68.3921C29.7581 68.043 37.6402 63.9479 46.61 59.2754L62.9255 50.7897L62.9702 34.06C62.9851 24.8627 62.9553 17.3303 62.8957 17.3303C62.8212 17.3303 62.5828 17.4511 62.3295 17.5988L61.8825 17.8673L61.808 33.9928L61.7335 50.1318L45.418 58.6175L29.1025 67.1166L29.0578 65.3443C29.0131 63.6794 29.028 63.5719 29.3409 63.3974C29.5048 63.29 36.0757 59.8662 43.9131 55.7844L58.1575 48.3729L58.2022 34.0465L58.232 19.7336L57.636 20.029L57.04 20.3378L57.0102 34.0197L56.9655 47.715L43.183 54.8983C35.5989 58.8457 29.3111 62.095 29.2217 62.1353C29.0727 62.189 29.028 61.7862 29.028 60.4167V58.6175L41.3205 52.2398L53.613 45.8621V34.0063V22.1639L53.017 22.4324L52.421 22.701V33.9526V45.1907L41.5887 50.83C35.6287 53.9315 30.369 56.6706 29.8922 56.9123L29.0131 57.3554L29.0578 55.5293L29.1025 53.7033L38.9663 48.5743L48.845 43.4453V34.0734C48.845 28.931 48.8003 24.715 48.7407 24.715C48.6662 24.715 48.398 24.8358 48.1447 24.9835L47.653 25.252V34.0197V42.7739L38.4299 47.5807C33.3639 50.2123 29.177 52.374 29.1174 52.374C29.0727 52.374 29.028 51.5684 29.028 50.5883L29.0429 48.816L32.2762 47.151C34.0493 46.2246 37.4763 44.4523 39.8752 43.2036L44.226 40.9345V34.0331C44.226 30.2333 44.1962 27.1318 44.1515 27.1318C44.1217 27.1318 43.8535 27.2392 43.5555 27.36L43.034 27.5883L43.0042 33.9526L42.9595 40.3303L36.5525 43.6735C33.0361 45.513 29.8922 47.1376 29.5942 47.2719L29.028 47.5404V45.7412V43.9555L34.243 41.2298L39.458 38.5176V34.0331C39.458 31.5626 39.4282 29.5486 39.3835 29.5486C39.3537 29.5486 39.1004 29.6694 38.8322 29.8171L38.3405 30.0857L38.266 33.9928L38.1915 37.9134L33.7215 40.2363C31.263 41.5252 29.2068 42.5725 29.1472 42.5725C29.0727 42.5725 29.028 41.8609 29.028 40.9882V39.4038L32.0825 37.8195L35.137 36.2351V34.0331C35.137 32.8247 35.0923 31.8311 35.0327 31.8311C34.9582 31.8311 34.7198 31.952 34.4665 32.0997L34.0195 32.3682L33.945 33.9928L33.8705 35.6175L31.5908 36.8125C30.3243 37.4704 29.2366 38.0074 29.1621 38.0074C29.0876 38.0074 29.028 36.9467 29.028 35.5503V33.0798L46.014 24.245C55.3563 19.3845 63 15.37 63 15.3028C63 15.1686 62.2103 14.7792 61.957 14.7792C61.8527 14.7792 55.1924 18.203 47.1613 22.3921C39.1153 26.5813 31.4716 30.5422 30.1902 31.2135L27.836 32.4353V35.5906V38.7593L26.1672 39.6455L24.4835 40.5317L24.4388 35.6175C24.409 31.7909 24.4537 30.663 24.5878 30.5422C24.6921 30.4616 32.2613 26.5007 41.395 21.7611C50.5287 17.0214 58.0979 13.0606 58.2022 12.98C58.3512 12.8457 58.2618 12.7517 57.8148 12.5235L57.2486 12.2415L40.2775 21.0763L23.2915 29.9111L23.2468 35.5503L23.217 41.1761L21.4588 42.0757L19.7155 42.9753L19.6708 35.6846C19.6559 31.6834 19.6708 28.3402 19.7006 28.2596C19.7304 28.1925 27.4039 24.1376 36.7611 19.2771L53.762 10.4423L53.166 10.1067L52.5551 9.78443L35.5393 18.6461L18.5235 27.4943L18.449 35.5906L18.3745 43.6735L16.7355 44.5328C15.8415 45.0028 15.0518 45.3921 14.9922 45.3921C14.9177 45.3921 14.8879 40.9747 14.9028 35.5638L14.9475 25.7354L23.6044 21.2374C28.3575 18.7535 36.031 14.7657 40.6351 12.3758C48.994 8.02553 49.0089 8.0121 48.6662 7.77042C48.4725 7.63615 48.2043 7.50188 48.0553 7.44818C47.8765 7.39447 42.289 10.2409 30.7713 16.2293L13.7555 25.0775L13.7108 35.604L13.681 46.1306L12.0569 46.9631C11.1778 47.433 10.403 47.8089 10.3583 47.8089C10.2987 47.8089 10.254 42.2906 10.254 35.5503V23.2783L19.9092 18.2567C41.0076 7.28706 44.1515 5.63557 44.1813 5.54158C44.226 5.43417 43.3916 4.97765 43.1532 4.97765C43.0638 4.97765 35.3605 8.95197 26.0331 13.799L9.06205 22.6338V35.5906V48.5474L7.42305 49.3799C6.52905 49.8498 5.72445 50.2258 5.63505 50.2258C5.53075 50.2258 5.48605 45.4593 5.48605 35.5503V20.8615L22.472 12.0267C31.8143 7.16621 39.458 3.15162 39.458 3.09792C39.458 3.03078 39.2345 2.86966 38.9514 2.72196L38.4448 2.45343L21.3694 11.3285L4.29405 20.217V35.604V51.0045L2.86365 51.7564C2.07395 52.1726 1.37365 52.5083 1.29915 52.5083C1.22465 52.5083 1.16505 45.0699 1.16505 35.3489V18.203L2.62525 17.4511C14.6793 11.2077 34.5112 0.8825 34.6602 0.748238C34.8241 0.613968 34.7645 0.533409 34.3175 0.291725C34.0195 0.144035 33.7662 0.00976562 33.7513 0.00976562C33.7364 0.00976562 26.197 3.93037 16.9888 8.72372ZM27.836 41.6595V43.311L26.2119 44.1434C25.3179 44.6134 24.558 44.9893 24.4984 44.9893C24.4537 44.9893 24.409 44.2777 24.409 43.3916V41.8072L26.0927 40.921C27.0016 40.4377 27.7764 40.0349 27.8062 40.0349C27.8211 40.0214 27.836 40.7599 27.836 41.6595ZM23.1872 44.1434L23.1425 45.7278L22.2485 46.1977C21.7568 46.4663 20.9671 46.8825 20.5052 47.1242L19.641 47.5538V45.9024V44.2509L21.2502 43.4184C22.1293 42.9753 22.9339 42.5994 23.0382 42.5859C23.1872 42.5725 23.217 42.935 23.1872 44.1434ZM27.836 46.3857V48.1849L26.2417 49.0308C25.3477 49.4873 24.5878 49.8901 24.5282 49.9169C24.4537 49.9438 24.409 49.165 24.409 48.1715V46.3589L26.0927 45.4727C27.0016 44.9893 27.7764 44.5865 27.8062 44.5865C27.8211 44.5865 27.836 45.3921 27.836 46.3857ZM18.449 46.5871V48.1849L16.7355 49.0711C15.7968 49.5544 14.9922 49.9572 14.9475 49.9572C14.9028 49.9572 14.873 49.2456 14.873 48.3594V46.7751L16.5567 45.8889C17.4656 45.4056 18.2702 45.0028 18.3447 44.9893C18.4043 44.9893 18.449 45.7144 18.449 46.5871ZM23.217 48.8697V50.6017L21.5035 51.4879C20.5648 51.9712 19.7602 52.374 19.7155 52.374C19.6708 52.374 19.641 51.5684 19.641 50.5883V48.816L21.2502 47.9835C22.1293 47.527 22.9339 47.151 23.0382 47.151C23.1723 47.1376 23.217 47.5673 23.217 48.8697ZM13.681 49.0442V50.6957L12.042 51.5282C11.148 51.9981 10.3732 52.374 10.3285 52.374C10.2838 52.374 10.254 51.649 10.254 50.7763V49.1785L11.9377 48.2923C12.8466 47.8089 13.6214 47.4196 13.6512 47.4196C13.6661 47.4061 13.681 48.1446 13.681 49.0442ZM18.449 51.3268L18.4341 53.1125L16.81 53.945C15.9011 54.4149 15.0965 54.7909 15.022 54.7909C14.9326 54.7909 14.873 54.1061 14.873 53.0588V51.3268L16.5567 50.4406C17.4656 49.9572 18.2702 49.5544 18.3447 49.5544C18.4043 49.5544 18.449 50.36 18.449 51.3268ZM27.836 51.3268L27.8211 53.1125L26.2566 53.9181C25.3924 54.3612 24.6325 54.7371 24.5431 54.764C24.4686 54.7909 24.409 54.0927 24.409 53.0185V51.2328L26.0182 50.4003C26.8973 49.9438 27.6572 49.5679 27.7317 49.5679C27.7913 49.5544 27.836 50.36 27.836 51.3268ZM9.00245 52.9917C8.92795 53.1528 5.85855 54.7909 5.62015 54.7909C5.39665 54.7909 5.45625 51.7564 5.67975 51.5953C5.76915 51.5147 6.55885 51.0985 7.42305 50.642L8.98755 49.8364L9.03225 51.3268C9.04715 52.1592 9.04715 52.8977 9.00245 52.9917ZM13.681 53.7704V55.5696L12.3102 56.2812C11.5503 56.6706 10.7755 57.0734 10.5818 57.1808L10.2391 57.3822L10.2838 55.5293L10.3285 53.6899L11.9675 52.8305C12.8615 52.3606 13.6214 51.9712 13.6363 51.9712C13.6661 51.9712 13.681 52.7768 13.681 53.7704ZM23.1872 53.7436L23.1425 55.5159L22.0995 56.0664C21.5333 56.3752 20.7287 56.778 20.3413 56.9928L19.6261 57.3554L19.6708 55.5159L19.7155 53.6899L21.3545 52.8305C22.2634 52.3606 23.0531 51.9712 23.1127 51.9712C23.1723 51.9712 23.2021 52.7634 23.1872 53.7436ZM18.449 56.1872V57.973L16.7355 58.8726C15.7968 59.3559 14.9922 59.7587 14.9475 59.7587C14.9028 59.7587 14.873 58.98 14.873 58.0267C14.873 56.7377 14.9177 56.2678 15.0816 56.147C15.2753 55.9993 18.3298 54.388 18.4043 54.388C18.4341 54.388 18.449 55.1937 18.449 56.1872ZM27.836 56.1872V57.9864L26.6142 58.6175C25.9288 58.9666 25.154 59.3694 24.8858 59.5171L24.3941 59.7856L24.4388 57.9461L24.4835 56.1067L26.1225 55.2474C27.0314 54.7774 27.7764 54.388 27.8062 54.388C27.8211 54.388 27.836 55.1937 27.836 56.1872ZM23.217 58.604V60.3898L21.5035 61.2894C20.5648 61.7728 19.7602 62.1756 19.7155 62.1756C19.6708 62.1756 19.641 61.37 19.641 60.3898V58.6175L21.3992 57.7179C22.3528 57.2077 23.1574 56.8049 23.1872 56.8049C23.2021 56.8049 23.217 57.6105 23.217 58.604ZM27.836 61.1283V62.914L26.2417 63.7196C25.3626 64.1627 24.5878 64.5387 24.5282 64.5655C24.4686 64.5924 24.409 63.8002 24.409 62.82V61.0209L26.0182 60.1884C26.8973 59.7319 27.6572 59.3559 27.7317 59.3559C27.7913 59.3559 27.836 60.1615 27.836 61.1283Z" fill="#DB761E"/>
</svg>
