<svg width="62" height="69" viewBox="0 0 62 69" fill="none" xmlns="http://www.w3.org/2000/svg">
<path d="M28.3518 1.43779C26.9462 2.23394 19.9931 6.10098 12.902 10.0438L0 17.2219V34.5098V51.7977L12.902 58.9757C19.9931 62.9186 26.9462 66.7856 28.3518 67.5817C29.77 68.3653 30.9623 69.0098 31 69.0098C31.0377 69.0098 32.23 68.3653 33.6482 67.5817C35.0538 66.7856 42.0069 62.9186 49.1105 58.9757L62 51.7977V34.5098V17.2219L49.1105 10.0438C42.0069 6.10098 35.0538 2.23394 33.6482 1.43779C32.23 0.654266 31.0377 0.00976562 31 0.00976562C30.9623 0.00976562 29.77 0.654266 28.3518 1.43779ZM46.0607 9.5257L60.9332 17.8158L60.9709 23.8817L60.996 29.935L60.0672 30.4532C59.5652 30.7438 59.1134 30.9713 59.0632 30.9713C59.0255 30.9713 58.9753 28.1784 58.9628 24.7537L58.9251 18.5488L47.3785 12.1164C41.0279 8.59053 34.7903 5.11526 33.5227 4.40757C32.2551 3.69987 31.113 3.11855 31 3.11855C30.887 3.11855 29.5567 3.80097 28.0381 4.64767C26.532 5.49438 19.8174 9.2224 13.1405 12.9504L0.991498 19.7114L1.02915 18.7636L1.0668 17.8158L16.002 9.48779C24.2227 4.91306 31 1.18504 31.0628 1.21031C31.1381 1.23559 37.8777 4.97625 46.0607 9.5257ZM44.5547 11.7246L57.9211 19.168V25.3982V31.6284L56.9798 32.1719L56.0385 32.7153L56.0008 26.3081L55.9632 19.9136L46.4121 14.6059C41.1534 11.6867 35.5559 8.5779 33.9619 7.68064C32.3178 6.77075 30.9874 6.10098 30.8745 6.13889C30.7741 6.1768 29.4688 6.88449 27.9879 7.71856C26.5069 8.53999 19.8174 12.2554 13.1405 15.9834L0.991498 22.7444L1.02915 21.7966L1.0668 20.8488L16.002 12.5208C24.2227 7.94603 31 4.21801 31.0628 4.24328C31.1381 4.26855 37.2 7.63009 44.5547 11.7246ZM43.036 13.9109L54.9717 20.5455V26.9273V33.3092L53.9676 33.8526L52.9636 34.396V27.8499V21.2911L44.4668 16.5647C39.7854 13.9614 34.853 11.2191 33.5101 10.4735C32.117 9.68998 30.9874 9.13394 30.8745 9.17185C30.7741 9.20977 29.4688 9.91746 27.9879 10.7515C26.5069 11.573 19.8174 15.2883 13.1405 19.0164L0.991498 25.7773L1.02915 24.8295L1.0668 23.8817L16.002 15.5537C24.2227 10.979 30.9749 7.23833 31.0251 7.25097C31.0753 7.26361 36.4721 10.2587 43.036 13.9109ZM41.4798 16.0845L51.9595 21.923V28.4438V34.9647L51.0182 35.4955C50.5036 35.7861 50.0518 36.0262 50.0142 36.0262C49.9765 36.0262 49.9389 33.0059 49.9263 29.3158L49.8887 22.618L43.2996 18.9532C39.6725 16.9312 35.468 14.5933 33.9619 13.7466C32.4433 12.8999 31.113 12.2175 31 12.2175C30.887 12.2175 29.5567 12.8999 28.0381 13.7466C26.532 14.5933 19.8174 18.3213 13.1405 22.0493L0.991498 28.8103L1.02915 27.8625L1.0668 26.9147L16.002 18.5867C24.2227 14.012 30.9498 10.2587 30.9623 10.2587C30.9749 10.246 35.7065 12.8746 41.4798 16.0845ZM40.0364 18.3087L48.8846 23.2372L48.9223 29.935L48.9474 36.6328L48.2696 37.0246C47.9057 37.2394 47.5668 37.4164 47.5166 37.4164C47.4789 37.4164 47.4413 34.4592 47.4413 30.8576V24.2861L41.8312 21.1647C38.7312 19.446 35.0538 17.3988 33.6356 16.6026C32.1672 15.7812 30.9874 15.1999 30.8745 15.2378C30.7741 15.2757 29.4688 15.9834 27.9879 16.8175C26.5069 17.6389 19.8174 21.3543 13.1405 25.0823L0.991498 31.8433L1.02915 30.8955L1.0668 29.9477L16.002 21.6197C24.2227 17.0449 31 13.3169 31.0628 13.3422C31.1381 13.3675 35.1668 15.6043 40.0364 18.3087ZM38.7814 20.6466L46.3745 24.8801L46.4121 31.4515L46.4372 38.0356L45.6591 38.4779C45.2198 38.718 44.768 38.9581 44.6551 38.996C44.4417 39.0845 44.4291 38.6927 44.404 32.3488L44.3664 25.6131L40.5385 23.4773C38.43 22.3021 35.468 20.6592 33.9619 19.8125C32.4433 18.9658 31.113 18.2834 31 18.2834C30.887 18.2834 29.5567 18.9658 28.0381 19.8125C26.532 20.6592 19.8174 24.3872 13.1405 28.1153L0.991498 34.8762L1.02915 33.9284L1.0668 32.9806L16.002 24.6526C24.2227 20.0779 31 16.3499 31.0628 16.3751C31.1381 16.4004 34.602 18.3213 38.7814 20.6466ZM37.2628 22.8202L43.4126 26.2323V32.9933L43.4251 39.7543L42.4211 40.285L41.417 40.8284V33.9032V26.9905L38.681 25.4741C37.1875 24.64 34.853 23.351 33.5101 22.6054C32.117 21.8219 30.9874 21.2658 30.8745 21.3037C30.7741 21.3416 29.4688 22.0493 27.9879 22.8834C26.5069 23.7048 19.8174 27.4202 13.1405 31.1482L0.991498 37.9092L1.02915 36.9614L1.0668 36.0136L16.002 27.6856C24.2227 23.1109 30.9749 19.3702 31.0251 19.3828C31.0628 19.3955 33.8741 20.9372 37.2628 22.8202ZM35.7567 25.0317L40.413 27.6224V34.5098V41.3971L35.7065 44.0131L31 46.629L26.2935 44.0131L21.587 41.3971V34.5098V27.6224L26.2684 25.0065C28.8287 23.5784 30.9749 22.4032 31.0251 22.4158C31.0628 22.4284 33.1964 23.6037 35.7567 25.0317ZM23.319 43.5455C24.8126 44.3795 27.147 45.6686 28.4899 46.4142C29.883 47.1977 31.0126 47.7537 31.1255 47.7158C31.2259 47.6779 32.5312 46.9702 34.0121 46.1361C35.4931 45.3147 42.1826 41.5993 48.8595 37.8713L61.0085 31.1103L60.9709 32.0581L60.9332 33.0059L45.9729 41.3339L31 49.662L24.7874 46.2246L18.5875 42.7872V36.0262L18.5749 29.2653L19.5538 28.7471L20.5202 28.229L20.5579 35.129L20.583 42.029L23.319 43.5455ZM17.596 36.6834L17.6336 43.4065L21.4615 45.5422C23.57 46.7175 26.532 48.3603 28.0381 49.207C29.5567 50.0537 30.887 50.7361 31 50.7361C31.113 50.7361 32.4433 50.0537 33.9619 49.207C35.468 48.3603 42.1826 44.6323 48.8595 40.9043L61.0085 34.1433L60.9709 35.0911L60.9332 36.0389L45.9729 44.3669L31 52.7076L23.319 48.4235L15.6255 44.1394L15.5879 37.568L15.5628 30.9839L16.4664 30.4784C16.9684 30.1878 17.4202 29.9603 17.4704 29.9603C17.5206 29.9603 17.5834 32.9806 17.596 36.6834ZM14.5587 38.162V44.7334L20.1814 47.8548C23.2688 49.5735 26.9462 51.6208 28.3644 52.4169C29.8328 53.2383 31.0126 53.8197 31.1255 53.7817C31.2259 53.7438 32.5312 53.0361 34.0121 52.2021C35.4931 51.3806 42.1826 47.6653 48.8595 43.9372L61.0085 37.1762L60.9709 38.1241L60.9332 39.0719L45.9729 47.3999L31 55.7405L22.064 50.7614L13.1154 45.7823L13.0777 39.0845L13.0526 32.3867L13.7053 32.0076C14.0692 31.7927 14.4081 31.6158 14.4708 31.6158C14.5211 31.6032 14.5587 34.5603 14.5587 38.162ZM12.0737 39.7037L12.1113 46.4015L18.7004 50.0664C22.3275 52.0883 26.532 54.4262 28.0381 55.273C29.5567 56.1197 30.887 56.8021 31 56.8021C31.113 56.8021 32.4433 56.1197 33.9619 55.273C35.468 54.4262 42.1826 50.6982 48.8595 46.9702L61.0085 40.2092L60.9709 41.157L60.9332 42.1048L45.9729 50.4328L31 58.7735L20.5202 52.935L10.0405 47.1092V40.5757V34.0548L10.9567 33.5367C11.4462 33.246 11.898 33.0059 11.9482 33.0059C11.9984 32.9933 12.0611 36.0136 12.0737 39.7037ZM17.5457 52.4548C22.2146 55.0581 27.147 57.8004 28.4899 58.546C29.883 59.3295 31.0126 59.8856 31.1255 59.8477C31.2259 59.8098 32.5312 59.1021 34.0121 58.268C35.4931 57.4466 42.1826 53.7312 48.8595 50.0032L61.0085 43.2422L60.9709 44.19L60.9332 45.1378L45.9729 53.4658L31 61.8065L19.0142 55.1339L7.02834 48.4741V42.0922V35.7103L8.00729 35.1795L8.97368 34.6488L9.01134 41.1823L9.03644 47.7284L17.5457 52.4548ZM15.5879 54.4136C20.8466 57.3328 26.4441 60.4416 28.0381 61.3389C29.6822 62.2488 31.0126 62.9186 31.1255 62.8806C31.2259 62.8427 32.5312 62.135 34.0121 61.301C35.4931 60.4795 42.1826 56.7642 48.8595 53.0361L61.0085 46.2752L60.9709 47.223L60.9332 48.1708L45.9603 56.4988L31 64.8394L17.5332 57.3455L4.07895 49.8515V43.6213V37.3911L5.02024 36.8477L5.96154 36.3043L5.99919 42.7114L6.03684 49.1059L15.5879 54.4136ZM3.03725 44.2658L3.0749 50.4708L14.6215 56.9032C20.9721 60.429 27.2097 63.9043 28.4773 64.612C29.7449 65.3197 30.887 65.901 31 65.901C31.113 65.901 32.4433 65.2186 33.9619 64.3719C35.468 63.5252 42.1826 59.7971 48.8595 56.0691L61.0085 49.3081L60.9709 50.2559L60.9332 51.2037L45.9729 59.5317L31 67.8724L16.0397 59.5317L1.0668 51.2037L1.02915 45.1378L1.00405 39.0845L1.90769 38.5664C2.40972 38.2883 2.86154 38.0482 2.91174 38.0482C2.96194 38.0482 3.0247 40.8411 3.03725 44.2658Z" fill="#DB761E"/>
</svg>
