<svg width="29" height="29" viewBox="0 0 29 29" fill="none" xmlns="http://www.w3.org/2000/svg">
<g clip-path="url(#clip0_2051_3247)">
<path d="M4.95621 0.0792961C3.99899 0.311523 3.14938 1.01387 2.71891 1.93144C2.37906 2.65644 2.37906 2.65078 2.37906 7.57285V12.0645H1.80133C1.11031 12.0645 0.878088 12.1211 0.555236 12.3646C0.0171501 12.7668 -0.1641 13.5824 0.147424 14.2055C0.289025 14.4943 0.594884 14.7889 0.832775 14.8625C0.95172 14.9021 0.95172 14.9021 0.974377 17.0375C0.997033 19.1389 0.997033 19.1842 1.15563 19.8525C1.3652 20.7361 1.52379 21.1779 1.9316 22.0049C2.74723 23.6475 4.03863 25.0012 5.66422 25.9131L6.23063 26.2303V27.1195C6.23629 28.343 6.30426 28.5752 6.74039 28.8697C6.91031 28.9887 6.98961 29 7.72027 29C8.41695 29 8.5359 28.9887 8.72281 28.8811C9.07399 28.6828 9.19293 28.3996 9.22125 27.6859L9.24957 27.0742H14.5002H19.7507L19.7791 27.6859C19.8074 28.3996 19.9263 28.6828 20.2775 28.8811C20.4644 28.9887 20.5834 29 21.28 29C22.0107 29 22.09 28.9887 22.2599 28.8697C22.6961 28.5752 22.764 28.343 22.7697 27.1195V26.2303L23.2908 25.9357C25.664 24.6047 27.2216 22.5203 27.8447 19.8525C28.0033 19.1842 28.0033 19.1389 28.0259 17.0375C28.0486 14.9021 28.0486 14.9021 28.1675 14.8625C28.4054 14.7889 28.7113 14.4943 28.8529 14.2055C29.255 13.4012 28.8189 12.3533 27.992 12.1211C27.8504 12.0814 23.8119 12.0645 15.5933 12.0645H3.3986V11.1299V10.1953H3.85172H4.30485V10.4219C4.30485 10.7787 4.42945 11.0223 4.66168 11.0959C4.87692 11.1695 5.01285 11.1355 5.19977 10.9713C5.31871 10.858 5.32438 10.8297 5.32438 9.67422C5.32438 8.49609 5.32438 8.49043 5.18278 8.35449C4.9902 8.15625 4.65602 8.16191 4.47477 8.35449C4.37281 8.46211 4.33317 8.58105 4.31617 8.83594L4.29352 9.17578H3.84606H3.3986V6.27012C3.3986 4.67851 3.42125 3.22285 3.45524 3.03594C3.77242 1.09316 6.11168 0.339844 7.49371 1.7332C7.87887 2.11836 8.06578 2.50352 8.15074 3.1039L8.19606 3.39844L7.96383 3.45508C6.97828 3.69297 6.10602 4.59355 5.86246 5.61308C5.72652 6.19082 5.74918 6.43437 5.94176 6.63262L6.10602 6.79688H8.66617C11.283 6.79688 11.3736 6.79121 11.5379 6.57598C11.6341 6.45137 11.6285 5.93027 11.5265 5.55644C11.266 4.5709 10.439 3.72129 9.51578 3.4834C9.23258 3.41543 9.2609 3.46641 9.1193 2.66211C9.01168 2.03906 8.71715 1.5123 8.19039 0.985546C7.69762 0.492773 7.27281 0.243553 6.65543 0.0849609C6.25895 -0.0169926 5.36403 -0.0226574 4.95621 0.0792961ZM9.36852 4.51992C9.73668 4.64453 10.2295 5.09766 10.3994 5.46582L10.5353 5.74902L9.62906 5.76601C9.13629 5.77168 8.30934 5.77168 7.79391 5.76601L6.85934 5.74902L7.00094 5.46582C7.45406 4.56523 8.40563 4.18574 9.36852 4.51992ZM27.839 13.2256C28.0089 13.3898 28.0203 13.6447 27.873 13.826L27.7654 13.9619H14.5002H1.23492L1.12731 13.826C0.980041 13.6447 0.991369 13.3898 1.16129 13.2256L1.29723 13.084H14.5002H27.7031L27.839 13.2256ZM27.0007 17.0318C26.9724 19.2521 26.9611 19.3824 26.5929 20.4869C26.1964 21.6877 25.5564 22.7016 24.6105 23.6531C23.3418 24.9275 21.8691 25.6752 20.0509 25.9754C19.3429 26.0887 9.65738 26.0887 8.94938 25.9754C7.13121 25.6752 5.65856 24.9275 4.38981 23.6531C3.44391 22.7016 2.80387 21.6877 2.40738 20.4869C2.03922 19.3824 2.02789 19.2521 1.99957 17.0318L1.97125 15.0098H14.5002H27.0291L27.0007 17.0318ZM7.7316 26.757L8.18473 26.8873L8.20172 27.4367L8.21871 27.9805H7.7316H7.25016V27.3008C7.25016 26.927 7.25582 26.6211 7.26715 26.6211C7.27281 26.6211 7.48238 26.6834 7.7316 26.757ZM21.7502 27.3008V27.9805H21.2687H20.7816L20.7986 27.4311L20.8156 26.8873L21.2404 26.757C21.4726 26.6891 21.6822 26.6324 21.7105 26.6268C21.7332 26.6211 21.7502 26.927 21.7502 27.3008Z" fill="#8E8E8E"/>
</g>
<defs>
<clipPath id="clip0_2051_3247">
<rect width="29" height="29" fill="white"/>
</clipPath>
</defs>
</svg>
