<svg width="30" height="30" viewBox="0 0 30 30" fill="none" xmlns="http://www.w3.org/2000/svg">
<g clip-path="url(#clip0_2051_3231)">
<path d="M4.83398 1.13672C4.48242 1.30078 4.26562 1.52344 4.10742 1.875C3.99023 2.13281 3.98438 2.23828 3.98438 6.22852V10.3125L2.54883 13.1777C1.20703 15.8613 1.10742 16.0488 0.943359 16.084C0.703125 16.1367 0.269531 16.5352 0.123047 16.834C0 17.0859 0 17.1328 0 22.5C0 27.8672 0 27.9141 0.123047 28.166C0.275391 28.4766 0.703125 28.8633 0.990234 28.9453C1.10742 28.9746 1.6875 29.0039 2.28516 29.0039C3.25195 29.0039 3.39844 28.9863 3.63281 28.8809C3.98438 28.7227 4.20703 28.5059 4.37109 28.1543C4.5 27.8848 4.51172 27.7852 4.51172 26.9355V26.0156H15H25.4883V26.9355C25.4883 27.7852 25.5 27.8848 25.6289 28.1543C25.793 28.5059 26.0156 28.7227 26.3672 28.8809C26.6016 28.9863 26.748 29.0039 27.7148 29.0039C28.3125 29.0039 28.8926 28.9746 29.0098 28.9453C29.2969 28.8633 29.7246 28.4766 29.877 28.166C30 27.9141 30 27.8672 30 22.5C30 17.1328 30 17.0859 29.877 16.834C29.7305 16.5352 29.2969 16.1367 29.0566 16.084C28.8926 16.0488 28.793 15.8613 27.4512 13.1777L26.0156 10.3125V6.22852C26.0156 2.23828 26.0098 2.13281 25.8926 1.875C25.7344 1.52344 25.5176 1.30078 25.166 1.13672L24.873 0.996094H15H5.12695L4.83398 1.13672ZM24.8145 2.19727L24.9609 2.33789V6.15234V9.96094H24.498H24.041L24 9.67969C23.918 9.07031 23.4082 8.40234 22.8047 8.12695C22.5352 7.99805 22.4707 7.99805 19.4004 7.98047C16.6699 7.96875 16.2363 7.97461 15.9551 8.05664C15.5977 8.16211 15.4043 8.26758 15.1641 8.49023L15 8.63672L14.8418 8.49023C14.5957 8.26758 14.4023 8.16211 14.0449 8.05664C13.7637 7.97461 13.3301 7.96875 10.5996 7.98047C7.5293 7.99805 7.46484 7.99805 7.19531 8.12695C6.5918 8.40234 6.08203 9.07031 6 9.67969L5.95898 9.96094H5.50195H5.03906V6.15234V2.33789L5.18555 2.19727L5.32617 2.05078H15H24.6738L24.8145 2.19727ZM13.8105 9.08789C14.0332 9.16992 14.2969 9.42188 14.3906 9.65039C14.4902 9.87305 14.4961 10.5879 14.4082 10.8223C14.3203 11.0566 14.127 11.25 13.8574 11.373C13.6406 11.4727 13.418 11.4844 10.7812 11.4844C9.09375 11.4844 7.85742 11.4609 7.73438 11.4258C7.49414 11.3613 7.18359 11.0684 7.0957 10.8223C7.01367 10.6055 7.01367 9.89648 7.0957 9.68555C7.17773 9.46875 7.42969 9.20508 7.64648 9.10547C7.875 9.00586 13.5469 8.98828 13.8105 9.08789ZM22.3066 9.08789C22.5293 9.16992 22.793 9.42188 22.8867 9.65039C22.9863 9.87305 22.9922 10.5879 22.9043 10.8223C22.8164 11.0684 22.5059 11.3613 22.2656 11.4258C22.1426 11.4609 20.9062 11.4844 19.2188 11.4844C16.582 11.4844 16.3594 11.4727 16.1426 11.373C15.6855 11.1621 15.5273 10.875 15.5273 10.2539C15.5273 9.79102 15.5918 9.58594 15.8086 9.35156C16.1191 9.02344 16.0781 9.0293 19.2305 9.02344C21.1523 9.02344 22.1953 9.04688 22.3066 9.08789ZM6.09375 11.1738C6.27539 11.6836 6.67383 12.1113 7.17188 12.3457L7.5293 12.5098H10.7227C14.2852 12.5098 14.1797 12.5215 14.7422 12.0938L15 11.8945L15.2578 12.0938C15.8203 12.5215 15.7148 12.5098 19.2773 12.5098H22.4707L22.8281 12.3457C23.3262 12.1113 23.7246 11.6836 23.9062 11.1738L23.9648 11.0156H24.5625H25.166L25.7695 12.2168C26.0977 12.8789 26.3672 13.4297 26.3672 13.4473C26.3672 13.4648 22.4121 13.4766 17.5781 13.4766H8.7832L8.64258 13.623C8.46094 13.7988 8.44336 14.1621 8.60742 14.3613L8.71875 14.502L17.8242 14.5195L26.9238 14.5312L27.293 15.2637L27.6562 15.9961H15H2.34375L2.70703 15.2637L3.07617 14.5312H4.88086H6.69141L6.86133 14.3613C7.08984 14.127 7.08984 13.8809 6.86133 13.6465L6.69141 13.4766H5.16211C4.31836 13.4766 3.63281 13.4648 3.63281 13.4473C3.63281 13.4297 3.90234 12.8789 4.23047 12.2168L4.83398 11.0156H5.4375H6.03516L6.09375 11.1738ZM28.8105 17.1797L28.9453 17.3027V21.1348V24.9609H15H1.05469V21.1406V17.3203L1.18359 17.1855L1.30664 17.0508H14.9941H28.6758L28.8105 17.1797ZM3.45703 26.8359C3.45703 27.6328 3.45117 27.668 3.31055 27.8027C3.16992 27.9434 3.14648 27.9492 2.25 27.9492C1.00781 27.9492 1.05469 27.9902 1.05469 26.8535V26.0156H2.25586H3.45703V26.8359ZM28.9453 26.8477C28.9453 27.9961 28.9922 27.9492 27.7617 27.9492C26.8535 27.9492 26.8301 27.9434 26.6895 27.8027C26.5488 27.668 26.543 27.6328 26.543 26.8359V26.0156H27.7441H28.9453V26.8477Z" fill="#8E8E8E"/>
<path d="M2.25586 18.5274C1.99805 18.6798 1.99805 18.6739 1.99219 21.0118V23.2442L2.13281 23.3731C2.37305 23.6017 2.8125 23.5431 2.95898 23.2618C3.09375 23.004 3.08789 19.0021 2.95898 18.7442C2.82422 18.4864 2.50195 18.3868 2.25586 18.5274Z" fill="#8E8E8E"/>
<path d="M4.76367 18.5157C4.4707 18.6329 4.45312 18.756 4.45312 21.006C4.45312 22.7403 4.4707 23.1212 4.54102 23.2618C4.6875 23.5431 5.12695 23.6017 5.36719 23.3731L5.50781 23.2442V21.0118C5.50195 18.6622 5.50195 18.6681 5.23242 18.5274C5.08594 18.4454 4.94531 18.4454 4.76367 18.5157Z" fill="#8E8E8E"/>
<path d="M7.28906 18.5156C6.97266 18.6445 6.97266 18.6621 6.97266 20.9941C6.97266 22.4297 6.99609 23.1914 7.03711 23.2734C7.07227 23.3379 7.18945 23.4258 7.30078 23.4727C7.4707 23.543 7.5293 23.543 7.69922 23.4727C7.81055 23.4258 7.92773 23.3379 7.96289 23.2734C8.00391 23.1914 8.02734 22.4238 8.02734 20.9824C8.02734 18.8203 8.02734 18.8145 7.89844 18.668C7.75195 18.498 7.47656 18.4336 7.28906 18.5156Z" fill="#8E8E8E"/>
<path d="M9.75586 18.5274C9.49805 18.6798 9.49805 18.6739 9.49219 21.0118V23.2442L9.63281 23.3731C9.87305 23.6017 10.3125 23.5431 10.459 23.2618C10.5938 23.004 10.5879 19.0021 10.459 18.7442C10.3242 18.4864 10.002 18.3868 9.75586 18.5274Z" fill="#8E8E8E"/>
<path d="M12.2637 18.5157C11.9707 18.6329 11.9531 18.756 11.9531 21.006C11.9531 22.7403 11.9707 23.1212 12.041 23.2618C12.1875 23.5431 12.627 23.6017 12.8672 23.3731L13.0078 23.2442V21.0118C13.002 18.6622 13.002 18.6681 12.7324 18.5274C12.5859 18.4454 12.4453 18.4454 12.2637 18.5157Z" fill="#8E8E8E"/>
<path d="M14.7891 18.5156C14.4727 18.6445 14.4727 18.6621 14.4727 20.9941C14.4727 22.4297 14.4961 23.1914 14.5371 23.2734C14.5723 23.3379 14.6895 23.4258 14.8008 23.4727C14.9707 23.543 15.0293 23.543 15.1992 23.4727C15.3105 23.4258 15.4277 23.3379 15.4629 23.2734C15.5039 23.1914 15.5273 22.4238 15.5273 20.9824C15.5273 18.8203 15.5273 18.8145 15.3984 18.668C15.252 18.498 14.9766 18.4336 14.7891 18.5156Z" fill="#8E8E8E"/>
<path d="M17.2559 18.5274C16.998 18.6798 16.998 18.6739 16.9922 21.0118V23.2442L17.1328 23.3731C17.373 23.6017 17.8125 23.5431 17.959 23.2618C18.0938 23.004 18.0879 19.0021 17.959 18.7442C17.8242 18.4864 17.502 18.3868 17.2559 18.5274Z" fill="#8E8E8E"/>
<path d="M19.7637 18.5157C19.4707 18.6329 19.4531 18.756 19.4531 21.006C19.4531 22.7403 19.4707 23.1212 19.541 23.2618C19.6875 23.5431 20.127 23.6017 20.3672 23.3731L20.5078 23.2442V21.0118C20.502 18.6622 20.502 18.6681 20.2324 18.5274C20.0859 18.4454 19.9453 18.4454 19.7637 18.5157Z" fill="#8E8E8E"/>
<path d="M22.2891 18.5156C21.9727 18.6445 21.9727 18.6621 21.9727 20.9941C21.9727 22.4297 21.9961 23.1914 22.0371 23.2734C22.0723 23.3379 22.1895 23.4258 22.3008 23.4727C22.4707 23.543 22.5293 23.543 22.6992 23.4727C22.8105 23.4258 22.9277 23.3379 22.9629 23.2734C23.0039 23.1914 23.0273 22.4238 23.0273 20.9824C23.0273 18.8203 23.0273 18.8145 22.8984 18.668C22.752 18.498 22.4766 18.4336 22.2891 18.5156Z" fill="#8E8E8E"/>
<path d="M24.7559 18.5274C24.498 18.6798 24.498 18.6739 24.4922 21.0118V23.2442L24.6328 23.3731C24.873 23.6017 25.3125 23.5431 25.459 23.2618C25.5938 23.004 25.5879 19.0021 25.459 18.7442C25.3242 18.4864 25.002 18.3868 24.7559 18.5274Z" fill="#8E8E8E"/>
<path d="M27.2637 18.5157C26.9707 18.6329 26.9531 18.756 26.9531 21.006C26.9531 22.7403 26.9707 23.1212 27.041 23.2618C27.1875 23.5431 27.627 23.6017 27.8672 23.3731L28.0078 23.2442V21.0118C28.002 18.6622 28.002 18.6681 27.7324 18.5274C27.5859 18.4454 27.4453 18.4454 27.2637 18.5157Z" fill="#8E8E8E"/>
</g>
<defs>
<clipPath id="clip0_2051_3231">
<rect width="30" height="30" fill="white"/>
</clipPath>
</defs>
</svg>
