<svg width="33" height="30" viewBox="0 0 33 30" fill="none" xmlns="http://www.w3.org/2000/svg">
<g clip-path="url(#clip0_2051_3225)">
<path d="M7.47656 0.09375C7.33477 0.181641 0.496289 7.58789 0.148242 8.04492L0 8.22656V18.9316V29.6367L0.199805 29.8184L0.399609 30H16.5H32.6004L32.8002 29.8184L33 29.6367V18.9316V8.22656L32.8582 8.04492C32.4715 7.54688 25.6652 0.175781 25.5105 0.09375C25.3559 0.00585938 24.5244 0 16.4871 0C8.50137 0.00585938 7.6248 0.0117188 7.47656 0.09375ZM27.6826 4.52344C29.2811 6.26953 30.5959 7.7168 30.6023 7.74609C30.6152 7.76953 27.2057 7.79297 23.0227 7.79297H15.4236L12.5941 4.70508C11.0408 3.00586 9.71309 1.55859 9.64863 1.48242L9.53262 1.34766L17.1574 1.35352H24.7822L27.6826 4.52344ZM11.2406 5.37305L14.3086 8.73047V18.6914V28.6523H12.9229H11.5436L11.5242 22.1953C11.5049 16.1016 11.4984 15.7148 11.3824 15.4102C11.1568 14.7949 10.8861 14.3965 10.4156 13.9746C8.48848 12.252 5.36895 12.9434 4.43437 15.293L4.28613 15.6738L4.2668 22.1602L4.24746 28.6523H2.86816H1.48242V18.6855V8.71875L4.6793 5.23242L7.87617 1.74609L8.02441 1.88086C8.10176 1.95703 9.55195 3.5332 11.2406 5.37305ZM31.5176 18.8965V28.6523H23.6543H15.791V18.8965V9.14062H23.6543H31.5176V18.8965ZM8.68828 14.543C9.10078 14.6836 9.58418 15.0938 9.79688 15.498L9.95801 15.791L9.97734 19.6113L9.99023 23.4375H7.89551H5.80078V19.6875C5.80078 16.0781 5.80723 15.9316 5.92969 15.627C6.18105 15.0234 6.76758 14.5723 7.47656 14.4375C7.89551 14.3613 8.22422 14.3906 8.68828 14.543ZM9.99023 26.7188V28.6523H7.89551H5.80078V26.7188V24.7852H7.89551H9.99023V26.7188Z" fill="#8E8E8E"/>
<path d="M19.0266 13.1074C18.6012 13.2949 18.6206 12.9727 18.6399 18.9902L18.6592 24.4453L18.8719 24.6152L19.0782 24.7852H23.6608C28.1725 24.7852 28.2434 24.7852 28.4303 24.668C28.5335 24.5977 28.643 24.457 28.6817 24.3281C28.7204 24.1875 28.7462 22.2891 28.7462 18.8789C28.7462 13.2773 28.7526 13.418 28.4239 13.1543C28.2821 13.0371 28.179 13.0371 23.7575 13.0254C19.6776 13.0078 19.22 13.0195 19.0266 13.1074ZM22.9454 16.2891V18.2227H21.5274H20.1094V16.2891V14.3555H21.5274H22.9454V16.2891ZM27.1993 16.2891V18.2227H25.8135H24.4278V16.2891V14.3555H25.8135H27.1993V16.2891ZM22.9454 21.5039V23.4375H21.5274H20.1094V21.5039V19.5703H21.5274H22.9454V21.5039ZM27.1993 21.5039V23.4375H25.8135H24.4278V21.5039V19.5703H25.8135H27.1993V21.5039Z" fill="#8E8E8E"/>
</g>
<defs>
<clipPath id="clip0_2051_3225">
<rect width="33" height="30" fill="white"/>
</clipPath>
</defs>
</svg>
