<svg width="31" height="31" viewBox="0 0 31 31" fill="none" xmlns="http://www.w3.org/2000/svg">
<path d="M13.8992 0.0679302C11.5911 0.292929 8.93468 1.2147 7.02581 2.47035C4.68145 4.0018 2.84516 6.05583 1.61855 8.51632C0.493549 10.7663 0 12.8712 0 15.4333C0 18.5034 0.820162 21.2978 2.45323 23.7945C7.84597 32.0397 19.35 33.2446 26.296 26.2986C28.5532 24.0413 29.9976 21.247 30.5928 17.9881C30.7815 16.9647 30.825 14.497 30.6726 13.4083C30.0484 8.93003 27.6242 5.05422 23.879 2.55019C21.0266 0.641317 17.3903 -0.265942 13.8992 0.0679302ZM16.9476 1.33083C21.3605 1.84616 25.2436 4.35019 27.5444 8.15342C28.5315 9.78648 29.2282 11.826 29.4678 13.8002C29.6129 14.9397 29.5258 17.0881 29.2936 18.1913C28.2194 23.2429 24.6557 27.2639 19.8145 28.8752C14.8718 30.5155 9.45726 29.3034 5.63952 25.6889C3.53468 23.6857 2.10484 21.1018 1.47339 18.155C1.28468 17.2913 1.27742 17.1026 1.27016 15.4478C1.27016 13.8728 1.29194 13.5752 1.4371 12.8349C2.56936 7.26793 6.59032 3.02196 12.0484 1.65019C13.6742 1.24374 15.2855 1.13486 16.9476 1.33083Z" fill="#8E8E8E"/>
<path d="M14.9961 3.98727C14.8074 4.13243 14.8074 4.13969 14.8074 5.14856C14.8074 6.06308 14.822 6.17195 14.9526 6.30259C15.047 6.39695 15.1921 6.44775 15.3881 6.44775C15.584 6.44775 15.7292 6.39695 15.8236 6.30259C15.9542 6.17195 15.9687 6.06308 15.9687 5.14856C15.9687 4.13969 15.9687 4.13243 15.78 3.98727C15.6711 3.90017 15.497 3.83485 15.3881 3.83485C15.2792 3.83485 15.105 3.90017 14.9961 3.98727Z" fill="#8E8E8E"/>
<path d="M19.2994 10.6285L16.3453 13.5826L16.1131 13.4955C15.8082 13.3939 14.9663 13.3939 14.6687 13.4955L14.4292 13.5826L12.6727 11.8261C10.9381 10.0987 10.9163 10.0769 10.6115 10.0769C10.205 10.0769 10.0163 10.2656 10.0163 10.6721C10.0163 10.9769 10.0381 10.9987 11.78 12.7624L13.551 14.5406L13.4566 14.7947C13.2316 15.4043 13.3913 16.2245 13.834 16.7398C14.6252 17.6616 16.1494 17.6616 16.9405 16.7398C17.3832 16.2245 17.5429 15.4043 17.3179 14.7947L17.2236 14.5406L20.1921 11.5648C23.1171 8.6253 23.1534 8.58175 23.1534 8.29143C23.1534 7.8995 22.9284 7.68175 22.5365 7.68175C22.2607 7.68175 22.1808 7.75433 19.2994 10.6285ZM15.9389 14.8963C16.1131 15.0705 16.1857 15.2084 16.1857 15.3753C16.1857 16.0213 15.4308 16.4568 14.9518 16.0793C14.5163 15.7455 14.4727 15.2592 14.8357 14.8963C15.0389 14.693 15.1405 14.6495 15.3873 14.6495C15.634 14.6495 15.7357 14.693 15.9389 14.8963Z" fill="#8E8E8E"/>
<path d="M4.04371 14.9397C3.7171 15.201 3.72436 15.68 4.05823 15.9341C4.23968 16.072 6.01791 16.0574 6.22113 15.9195C6.54775 15.6873 6.48968 15.0413 6.12678 14.8744C6.02517 14.8308 5.56791 14.7945 5.08888 14.7945C4.34129 14.7945 4.20339 14.8163 4.04371 14.9397Z" fill="#8E8E8E"/>
<path d="M24.6254 14.8816C24.277 15.0486 24.2335 15.6945 24.5529 15.9195C24.7561 16.0574 26.5343 16.072 26.7158 15.9341C27.0496 15.68 27.0787 15.2954 26.7883 15.005L26.5779 14.7945L25.6779 14.8018C25.1843 14.8018 24.7125 14.8381 24.6254 14.8816Z" fill="#8E8E8E"/>
<path d="M14.9671 24.5424C14.822 24.7021 14.8074 24.7819 14.8074 25.6964C14.8074 26.8722 14.8728 27.0247 15.3881 27.0247C15.9034 27.0247 15.9687 26.8722 15.9687 25.6892C15.9687 24.7384 15.9615 24.6803 15.8018 24.5351C15.5695 24.3174 15.1703 24.3247 14.9671 24.5424Z" fill="#8E8E8E"/>
</svg>
