<svg width="30" height="29" viewBox="0 0 30 29" fill="none" xmlns="http://www.w3.org/2000/svg">
<g clip-path="url(#clip0_2051_3651)">
<path d="M5.87942 1.58589C5.78313 1.64253 5.66985 1.74448 5.64153 1.80679C5.60754 1.86909 5.57922 2.22593 5.57922 2.59976V3.28511H3.70442C2.45833 3.28511 1.75032 3.30776 1.60872 3.34741C1.32551 3.43237 1.01399 3.69859 0.878052 3.97046C0.764771 4.18569 0.764771 4.35562 0.764771 15.4062C0.764771 26.4568 0.764771 26.6267 0.878052 26.8419C1.02532 27.1308 1.3425 27.3914 1.64836 27.465C1.99387 27.5556 28.5357 27.5556 28.8812 27.465C29.187 27.3914 29.5042 27.1308 29.6515 26.8419C29.7648 26.6267 29.7648 26.4568 29.7648 15.4062C29.7648 4.35562 29.7648 4.18569 29.6515 3.97046C29.5156 3.69859 29.204 3.43237 28.9208 3.34741C28.7792 3.30776 28.0712 3.28511 26.8251 3.28511H24.9503V2.57144C24.9503 1.86343 24.9503 1.85777 24.7861 1.69917C24.4972 1.40464 24.1573 1.40464 23.8685 1.69917C23.7042 1.85777 23.7042 1.86343 23.7042 2.57144V3.28511H21.297H18.8898V2.56011C18.8898 1.83511 18.8898 1.83511 18.7312 1.67652C18.5216 1.48394 18.2271 1.43296 17.9948 1.5519C17.706 1.69917 17.6437 1.89175 17.6437 2.63374V3.28511H15.2648H12.8859V2.63374C12.8859 1.89175 12.8236 1.69917 12.5347 1.5519C12.3025 1.43296 12.0079 1.48394 11.7984 1.67652C11.6398 1.83511 11.6398 1.83511 11.6398 2.56011V3.28511H9.23254H6.82532V2.58843C6.82532 1.82944 6.78567 1.71616 6.48547 1.55757C6.26458 1.44429 6.09465 1.44995 5.87942 1.58589ZM5.57922 5.21089C5.57922 6.14546 5.68684 6.3437 6.20227 6.3437C6.7177 6.3437 6.82532 6.14546 6.82532 5.21089V4.5312H9.23254H11.6398V5.2732V6.01519L11.804 6.17945C11.9456 6.31538 12.0193 6.3437 12.2458 6.3437C12.4837 6.3437 12.5517 6.31538 12.6933 6.16812C12.8575 5.99819 12.8575 5.98687 12.8745 5.26187L12.8972 4.5312H15.2648H17.6323L17.655 5.26187C17.672 5.98687 17.672 5.99819 17.8363 6.16812C17.9779 6.31538 18.0458 6.3437 18.2837 6.3437C18.5103 6.3437 18.5839 6.31538 18.7255 6.17945L18.8898 6.01519V5.2732V4.5312H21.297H23.7042V5.21089C23.7042 6.14546 23.8118 6.3437 24.3273 6.3437C24.8427 6.3437 24.9503 6.14546 24.9503 5.21089V4.5312H26.7345H28.5187V5.72066V6.91011H15.2648H2.01086V5.72066V4.5312H3.79504H5.57922V5.21089ZM28.5187 17.2187V26.2812H15.2648H2.01086V17.2187V8.1562H15.2648H28.5187V17.2187Z" fill="#8E8E8E"/>
<path d="M9.95383 11.8943C8.80969 12.1945 8.01672 13.0044 7.69954 14.1882C7.65422 14.3751 7.59758 14.8 7.58059 15.1341L7.54661 15.7458H8.17532H8.80403L8.83235 15.4173C8.90032 14.7207 8.97395 14.3808 9.12122 14.0636C9.40442 13.4406 9.91985 13.0611 10.5995 12.9761C11.6077 12.8572 12.429 13.2197 12.8198 13.956C12.9558 14.2166 12.9728 14.3015 12.9728 14.8396C12.9728 15.4003 12.9615 15.457 12.7859 15.8195C12.4857 16.4312 11.9816 16.8843 10.4863 17.8982C8.56047 19.1953 7.86946 19.9146 7.53528 20.9568C7.43333 21.291 7.2804 22.1179 7.2804 22.3558C7.2804 22.3671 8.872 22.3728 10.8204 22.3728H14.3605V21.7781V21.1833H11.5851C9.69895 21.1833 8.80969 21.1664 8.80969 21.1267C8.80969 20.9738 9.08157 20.5603 9.39875 20.2261C9.63098 19.9826 10.0898 19.6371 10.8204 19.1556C12.6499 17.9492 13.1823 17.513 13.6525 16.8503C13.9697 16.4029 14.1056 16.1253 14.2189 15.6892C14.3265 15.2644 14.3435 14.4205 14.2415 14.0126C13.9866 12.9535 13.1937 12.1832 12.0609 11.8943C11.4775 11.7414 10.5316 11.747 9.95383 11.8943Z" fill="#8E8E8E"/>
<path d="M17.2509 12.1892C17.2169 12.3534 16.9847 13.5599 16.7355 14.8683C16.4863 16.1767 16.271 17.3038 16.254 17.3718C16.2257 17.5021 16.2314 17.5021 16.7921 17.5021H17.3585L17.7663 17.0829C18.3327 16.5109 18.6216 16.4033 19.5165 16.3976C20.1566 16.3976 20.1736 16.4033 20.5984 16.6072C20.8646 16.7431 21.1138 16.9187 21.2611 17.0829C21.9238 17.7966 22.0993 19.0484 21.6689 19.9773C21.0798 21.2347 19.6128 21.7161 18.3611 21.0534C17.8513 20.7872 17.4208 20.1982 17.3359 19.6374C17.3189 19.5242 17.2906 19.3372 17.2736 19.2296L17.2396 19.0314H16.6222H15.9991V19.3316C15.9991 19.745 16.1861 20.4417 16.407 20.8609C16.8034 21.6029 17.6644 22.2089 18.6046 22.4072C19.239 22.5431 20.2585 22.4921 20.8023 22.2995C21.6066 22.022 22.2693 21.4896 22.6941 20.7816C23.4021 19.6148 23.4021 17.9665 22.6941 16.7997C21.9577 15.582 20.4738 14.9646 19.0011 15.2591C18.7292 15.3158 18.3497 15.4404 18.1288 15.5536C17.755 15.7406 17.7437 15.7462 17.772 15.6216C17.789 15.548 17.9136 14.9476 18.0439 14.2849L18.2874 13.0841H20.5134H22.7394V12.4894V11.8947H20.0263H17.3075L17.2509 12.1892Z" fill="#8E8E8E"/>
</g>
<defs>
<clipPath id="clip0_2051_3651">
<rect width="29" height="29" fill="white" transform="translate(0.764771)"/>
</clipPath>
</defs>
</svg>
