<svg width="33" height="31" viewBox="0 0 33 31" fill="none" xmlns="http://www.w3.org/2000/svg">
<g clip-path="url(#clip0_229_2738)">
<path d="M7.47656 0.507812C7.33477 0.595703 0.496289 8.00195 0.148242 8.45898L0 8.64062V19.3457V30.0508L0.199805 30.2324L0.399609 30.4141H16.5H32.6004L32.8002 30.2324L33 30.0508V19.3457V8.64062L32.8582 8.45898C32.4715 7.96094 25.6652 0.589844 25.5105 0.507812C25.3559 0.419922 24.5244 0.414062 16.4871 0.414062C8.50137 0.419922 7.6248 0.425781 7.47656 0.507812ZM27.6826 4.9375C29.2811 6.68359 30.5959 8.13086 30.6023 8.16016C30.6152 8.18359 27.2057 8.20703 23.0227 8.20703H15.4236L12.5941 5.11914C11.0408 3.41992 9.71309 1.97266 9.64863 1.89648L9.53262 1.76172L17.1574 1.76758H24.7822L27.6826 4.9375ZM11.2406 5.78711L14.3086 9.14453V19.1055V29.0664H12.9229H11.5436L11.5242 22.6094C11.5049 16.5156 11.4984 16.1289 11.3824 15.8242C11.1568 15.209 10.8861 14.8105 10.4156 14.3887C8.48848 12.666 5.36895 13.3574 4.43437 15.707L4.28613 16.0879L4.2668 22.5742L4.24746 29.0664H2.86816H1.48242V19.0996V9.13281L4.6793 5.64648L7.87617 2.16016L8.02441 2.29492C8.10176 2.37109 9.55195 3.94727 11.2406 5.78711ZM31.5176 19.3105V29.0664H23.6543H15.791V19.3105V9.55469H23.6543H31.5176V19.3105ZM8.68828 14.957C9.10078 15.0977 9.58418 15.5078 9.79688 15.9121L9.95801 16.2051L9.97734 20.0254L9.99023 23.8516H7.89551H5.80078V20.1016C5.80078 16.4922 5.80723 16.3457 5.92969 16.041C6.18105 15.4375 6.76758 14.9863 7.47656 14.8516C7.89551 14.7754 8.22422 14.8047 8.68828 14.957ZM9.99023 27.1328V29.0664H7.89551H5.80078V27.1328V25.1992H7.89551H9.99023V27.1328Z" fill="#8E8E8E"/>
<path d="M19.0256 13.5215C18.6003 13.709 18.6196 13.3867 18.6389 19.4043L18.6583 24.8594L18.871 25.0293L19.0772 25.1992H23.6598C28.1715 25.1992 28.2424 25.1992 28.4294 25.082C28.5325 25.0117 28.642 24.8711 28.6807 24.7422C28.7194 24.6016 28.7452 22.7031 28.7452 19.293C28.7452 13.6914 28.7516 13.832 28.4229 13.5684C28.2811 13.4512 28.178 13.4512 23.7565 13.4395C19.6766 13.4219 19.219 13.4336 19.0256 13.5215ZM22.9444 16.7031V18.6367H21.5264H20.1085V16.7031V14.7695H21.5264H22.9444V16.7031ZM27.1983 16.7031V18.6367H25.8126H24.4268V16.7031V14.7695H25.8126H27.1983V16.7031ZM22.9444 21.918V23.8516H21.5264H20.1085V21.918V19.9844H21.5264H22.9444V21.918ZM27.1983 21.918V23.8516H25.8126H24.4268V21.918V19.9844H25.8126H27.1983V21.918Z" fill="#8E8E8E"/>
</g>
<defs>
<clipPath id="clip0_229_2738">
<rect width="33" height="30" fill="white" transform="translate(0 0.414062)"/>
</clipPath>
</defs>
</svg>
