<svg width="30" height="31" viewBox="0 0 30 31" fill="none" xmlns="http://www.w3.org/2000/svg">
<path d="M18.5604 1.27623C18.3317 1.75717 18.0619 2.33195 17.9563 2.56069L17.7686 2.97711L16.5194 3.0123C15.8331 3.03576 14.8009 3.05336 14.232 3.05336H13.1938L13.0062 2.15013C12.7422 0.88327 12.7246 0.830484 12.5545 0.765968C12.4196 0.713182 11.1059 0.982977 2.18505 2.895C1.46364 3.04749 1.29941 3.10028 1.22903 3.21172C1.14692 3.33488 1.16452 3.46978 1.44018 4.76597L1.7393 6.18532L1.48123 6.44925C0.818476 7.14133 0.495895 8.16186 0.689444 8.97711C0.748095 9.22931 0.771555 11.3056 0.800881 18.5372C0.830206 26.983 0.841937 27.7982 0.935778 28.0563C1.34047 29.2234 2.2261 30.0094 3.3522 30.2029C3.74516 30.2674 15.751 30.4082 21.5633 30.4082L25.1704 30.4141L25.5809 30.2146C26.2789 29.8745 26.7892 29.2469 26.9944 28.4786C27.0589 28.2557 27.0765 27.5929 27.0765 25.7454V23.3056L27.4226 23.2352C28.1323 23.0944 28.707 22.6545 29.0296 21.9976C29.2173 21.6223 29.2173 21.6164 29.2349 20.5548C29.2584 19.3525 29.2056 19.024 28.8771 18.5138C28.5487 17.9976 27.7979 17.5402 27.2818 17.5402H27.0765V15.288C27.0765 13.2117 27.0648 13.0064 26.9592 12.6604C26.9006 12.4551 26.8067 12.2381 26.7598 12.1736C26.707 12.1091 26.666 12.0211 26.666 11.98C26.666 11.939 27.3522 10.4493 28.1909 8.67213C29.0355 6.895 29.71 5.43459 29.7041 5.42873C29.6455 5.37594 19.0824 0.414062 19.0355 0.414062C19.0003 0.414062 18.7892 0.801159 18.5604 1.27623ZM25.2584 4.16773C27.1117 5.04163 28.6484 5.78063 28.666 5.79823C28.6836 5.82169 28.1264 7.05336 27.4226 8.53723C26.7188 10.0211 26.1323 11.2586 26.1264 11.2821C26.1088 11.3232 25.493 10.9888 25.493 10.9361C25.493 10.9302 25.8507 10.1677 26.2848 9.24104C26.7188 8.32022 27.0765 7.52843 27.0765 7.48151C27.0765 7.35248 26.1381 5.32315 26.0326 5.21172C25.8859 5.07095 21.8331 3.17066 21.6748 3.17066C21.5106 3.17066 19.3581 3.62227 19.188 3.69266C19.1059 3.72785 18.5897 4.7601 17.4343 7.21172L15.7921 10.678H15.3874C15.0238 10.678 14.9886 10.6663 15.0238 10.5724C15.0414 10.5196 16.0267 8.42579 17.2114 5.92139L19.3581 1.37594L20.6249 1.97418C21.317 2.30263 23.405 3.28796 25.2584 4.16773ZM13.0531 5.98591C13.5751 8.41993 14.0091 10.4727 14.0267 10.5431C14.056 10.6721 14.0443 10.678 13.6865 10.678H13.3111L12.5956 7.31729C12.0971 4.97711 11.8507 3.93312 11.7804 3.86274C11.5868 3.67506 9.7217 2.70145 9.55748 2.70732C9.46364 2.70732 8.39032 2.92433 7.16452 3.18826L4.93578 3.6692L4.21437 4.49031C3.81554 4.94192 3.42258 5.41113 3.34047 5.52843L3.19384 5.74544L3.70997 8.15013C3.9915 9.47565 4.20851 10.5724 4.19091 10.59C4.17331 10.6076 3.9915 10.5666 3.78035 10.502L3.40499 10.373L2.69531 7.05336C2.30235 5.22345 1.9915 3.72198 1.99736 3.71025C2.01496 3.69266 12.0853 1.54016 12.1029 1.55189C12.1088 1.55776 12.537 3.55189 13.0531 5.98591ZM10.3434 3.89793C10.7892 4.1384 11.1704 4.37301 11.1938 4.41406C11.229 4.47858 12.5311 10.5431 12.5311 10.6428C12.5311 10.6604 12.4548 10.678 12.3669 10.678C12.2085 10.678 12.1968 10.6604 12.1264 10.285C12.0267 9.74544 11.8155 9.32902 11.4343 8.91846C10.2261 7.61054 7.93871 7.42873 6.27302 8.51377C5.82727 8.80702 5.24076 9.42286 5.06481 9.77477C5.00029 9.91553 4.92405 10.0328 4.90645 10.0328C4.87713 10.0328 4.02082 6.07975 4.02669 5.94485C4.02669 5.89207 4.8478 4.895 5.31114 4.3906C5.34634 4.34955 9.26422 3.48151 9.46364 3.46978C9.49883 3.46392 9.89765 3.65746 10.3434 3.89793ZM17.0062 4.57829L16.6191 5.3994L16.3199 5.1472C16.1557 5.00644 15.8625 4.76597 15.6689 4.60761L15.3229 4.32609L14.4021 4.36714L13.4812 4.4082L13.446 4.19705C13.4226 4.07975 13.3874 3.94485 13.3757 3.9038C13.3287 3.79236 13.5223 3.78063 15.5927 3.7689L17.3933 3.75717L17.0062 4.57829ZM23.5223 4.81875C24.5604 5.30556 25.4343 5.73371 25.4695 5.77477C25.5399 5.84515 26.2554 7.40527 26.2554 7.48738C26.2554 7.51084 25.9094 8.26744 25.4871 9.16479C24.7657 10.6897 24.7012 10.7953 24.5604 10.7953C24.4255 10.7894 24.3786 10.7308 24.1909 10.3378C23.7979 9.49911 22.9123 8.71905 21.9328 8.34368C19.8038 7.52843 17.6279 8.46685 17.2701 10.3495L17.1938 10.7366H16.9182C16.7598 10.7366 16.6367 10.7249 16.6367 10.7132C16.6367 10.6604 19.5809 4.43166 19.6279 4.38474C19.6689 4.33782 21.3463 3.95072 21.5575 3.93899C21.6044 3.93312 22.49 4.33195 23.5223 4.81875ZM15.6865 5.60468L16.2789 6.10321L15.9563 6.79529C15.7745 7.17066 15.4167 7.93899 15.1528 8.49031C14.8889 9.04749 14.6601 9.50497 14.6367 9.50497C14.5721 9.50497 14.5721 9.50497 14.1147 7.33488C13.8859 6.2557 13.6806 5.31142 13.6631 5.23518C13.6337 5.10614 13.6337 5.10614 14.361 5.10614H15.0883L15.6865 5.60468ZM2.28475 8.71318C2.4607 9.55189 2.5956 10.2498 2.58387 10.2616C2.53695 10.3085 1.90939 9.83342 1.73343 9.62814C1.39912 9.22345 1.29941 8.53723 1.48123 7.91553C1.58094 7.56362 1.86246 7.08268 1.92112 7.1472C1.94458 7.17066 2.1088 7.87447 2.28475 8.71318ZM9.53402 8.65453C10.537 8.91846 11.2701 9.61641 11.3933 10.4258L11.4343 10.678H8.46657H5.49296L5.55161 10.5314C5.77449 9.95072 6.24956 9.40527 6.8654 9.04163C7.5868 8.61348 8.74809 8.44339 9.53402 8.65453ZM21.2056 8.895C21.7862 9.04163 22.4724 9.417 22.8889 9.82755C23.2056 10.1443 23.6044 10.7073 23.5516 10.766C23.5399 10.7777 22.2789 10.7718 20.7598 10.7542L17.9856 10.719V10.5666C17.9856 10.4844 18.0619 10.2557 18.1557 10.0622C18.4314 9.47565 19.012 9.02403 19.6865 8.85981C20.0326 8.7777 20.8009 8.79529 21.2056 8.895ZM1.85073 10.7601C2.13812 10.9419 2.66598 11.1648 3.1176 11.2938C3.44018 11.3877 4.22024 11.3994 12.8537 11.4463C18.015 11.4756 22.8478 11.5167 23.5868 11.546C24.8067 11.5871 24.9592 11.6047 25.2056 11.722C25.5927 11.9097 25.9153 12.2029 26.1088 12.5607L26.2848 12.8774L26.3023 15.1765L26.3199 17.4815H25.9035H25.493V16.895V16.3085H25.1117H24.7305V16.895V17.4815L20.9416 17.4932L17.1528 17.5108L17.0414 17.6516C16.9358 17.7806 16.9299 17.9155 16.9299 20.3965V23.0006L17.0765 23.1413L17.2173 23.288H20.9768H24.7305V23.5226V23.7572H25.1117H25.493V23.5226V23.288H25.9035H26.3199L26.3023 25.8217C26.2848 28.3437 26.2848 28.3613 26.1499 28.6369C25.8977 29.1531 25.3933 29.5519 24.8361 29.6751C24.666 29.7161 21.0883 29.6985 14.0853 29.6223C2.55455 29.4991 3.27009 29.5284 2.66598 29.1413C2.31408 28.9185 2.02082 28.59 1.82727 28.2088L1.66892 27.9038L1.88006 27.6927C1.99736 27.5754 2.0912 27.4522 2.0912 27.4229C2.0912 27.3877 2.01496 27.2704 1.92112 27.1589C1.77449 26.9888 1.7393 26.9712 1.65719 27.0358C1.56921 27.1061 1.56334 26.5196 1.56334 19.9214V12.7308L1.75689 12.8481C1.8566 12.9126 1.9739 12.9654 2.00909 12.9654C2.06774 12.9654 2.32581 12.4551 2.32581 12.3378C2.32581 12.3144 2.21437 12.2322 2.07361 12.156L1.82727 12.0211L1.69824 12.1853L1.56334 12.3495V11.4815C1.56334 11.0064 1.57507 10.6193 1.59267 10.6193C1.61026 10.6193 1.72757 10.6839 1.85073 10.7601ZM27.71 18.4434C27.8742 18.5372 28.0853 18.7015 28.1674 18.8129C28.4548 19.1883 28.4842 19.3466 28.4842 20.4023C28.4842 21.3466 28.4783 21.3994 28.3317 21.6927C28.1674 22.027 27.927 22.2557 27.5751 22.4141C27.3522 22.5138 27.0589 22.5255 22.5194 22.5255H17.6924V20.3847V18.244L22.5487 18.2557L27.3991 18.2733L27.71 18.4434Z" fill="#8E8E8E"/>
<path d="M2.91869 12.7719C2.80139 13.2176 2.80725 13.2821 3.0008 13.3232C3.10051 13.3467 3.40549 13.3642 3.69288 13.3701L4.20315 13.376V13.0299V12.6898L3.72221 12.6546C3.45242 12.6311 3.17676 12.6018 3.10637 12.5783C2.99494 12.549 2.97148 12.5725 2.91869 12.7719Z" fill="#8E8E8E"/>
<path d="M4.90674 13.0241V13.376H5.58123H6.25571V13.0241V12.6722H5.58123H4.90674V13.0241Z" fill="#8E8E8E"/>
<path d="M6.95947 13.0241V13.376H7.60463H8.2498V13.0241V12.6722H7.60463H6.95947V13.0241Z" fill="#8E8E8E"/>
<path d="M9.0127 13.0241V13.376H9.65786H10.303V13.0241V12.6722H9.65786H9.0127V13.0241Z" fill="#8E8E8E"/>
<path d="M11.0645 13.0241V13.376H11.7096H12.3548V13.0241V12.6722H11.7096H11.0645V13.0241Z" fill="#8E8E8E"/>
<path d="M13.1177 13.0241V13.376H13.7628H14.408V13.0241V12.6722H13.7628H13.1177V13.0241Z" fill="#8E8E8E"/>
<path d="M15.1709 13.0651V13.4346H15.8102H16.4436L16.4847 13.1061C16.5081 12.9243 16.514 12.7659 16.5081 12.7542C16.4964 12.7484 16.1914 12.7308 15.8278 12.719L15.1709 12.7014V13.0651Z" fill="#8E8E8E"/>
<path d="M17.2227 13.0828V13.4347H17.51C17.6625 13.4347 17.9558 13.4523 18.1552 13.4699L18.513 13.511V13.118V12.7309H17.8678H17.2227V13.0828Z" fill="#8E8E8E"/>
<path d="M19.2759 13.077V13.4172L19.7275 13.4582C19.9738 13.4758 20.2612 13.4934 20.3727 13.4934H20.5662V13.1122V12.7309H19.921H19.2759V13.077Z" fill="#8E8E8E"/>
<path d="M21.3291 13.1122V13.4934H21.9743H22.6194V13.1122V12.7309H21.9743H21.3291V13.1122Z" fill="#8E8E8E"/>
<path d="M23.3587 13.112C23.3177 13.4815 23.3411 13.5519 23.4936 13.5519C23.5523 13.5519 23.7634 13.634 23.957 13.7396L24.3206 13.9214L24.5493 13.6633C24.7605 13.4229 24.7722 13.3994 24.6842 13.2997C24.5493 13.1531 23.9218 12.8539 23.6402 12.8129L23.3998 12.7777L23.3587 13.112Z" fill="#8E8E8E"/>
<path d="M24.8887 14.2732C24.6775 14.367 24.6189 14.4198 24.6541 14.4843C24.6775 14.5371 24.7069 14.7952 24.7186 15.0591L24.7362 15.5459H25.1174H25.4928L25.4869 15.0884C25.4811 14.5723 25.3813 14.1735 25.2582 14.1559C25.2113 14.1559 25.0412 14.2028 24.8887 14.2732Z" fill="#8E8E8E"/>
<path d="M24.7427 25.118L24.7603 25.7807L25.1298 25.7983L25.4934 25.8159V25.1356V24.4611H25.1122H24.7251L24.7427 25.118Z" fill="#8E8E8E"/>
<path d="M24.7312 26.7659C24.7312 26.9008 24.6784 27.1178 24.6139 27.2468C24.5494 27.3759 24.4966 27.499 24.4966 27.5225C24.4966 27.5459 24.6197 27.6574 24.7722 27.7747C25.0362 27.9741 25.0538 27.98 25.13 27.8803C25.2942 27.6632 25.4409 27.241 25.4761 26.8832L25.5112 26.5137H25.1183H24.7312V26.7659Z" fill="#8E8E8E"/>
<path d="M2.47831 28.1092C2.40206 28.2793 2.34928 28.4377 2.36101 28.4553C2.3962 28.5139 3.04136 28.6723 3.42846 28.7133L3.79209 28.7485V28.3614V27.9802H3.56922C3.44605 27.9802 3.19385 27.9392 3.01203 27.8922C2.82435 27.8453 2.66013 27.8043 2.64253 27.8043C2.6308 27.8043 2.55456 27.945 2.47831 28.1092Z" fill="#8E8E8E"/>
<path d="M23.6452 28.0446C23.4868 28.1032 23.264 28.1501 23.1643 28.156H22.9707V28.5372V28.9243L23.2816 28.8891C23.6745 28.8422 24.1437 28.7132 24.2786 28.6076C24.3842 28.5372 24.3842 28.5196 24.22 28.244C24.1261 28.0856 24.0264 27.9566 23.9971 27.9507C23.9619 27.9448 23.8094 27.9859 23.6452 28.0446Z" fill="#8E8E8E"/>
<path d="M4.49658 28.3612V28.7424H5.17107H5.84556V28.3612V27.98H5.17107H4.49658V28.3612Z" fill="#8E8E8E"/>
<path d="M6.54834 28.3612V28.7424H7.18764H7.82693L7.85626 28.4023C7.86799 28.2204 7.87385 28.0503 7.85626 28.021C7.84453 27.9976 7.54541 27.98 7.18764 27.98H6.54834V28.3612Z" fill="#8E8E8E"/>
<path d="M8.60156 28.3905V28.7424H9.24672H9.89189V28.3905V28.0386H9.24672H8.60156V28.3905Z" fill="#8E8E8E"/>
<path d="M10.6543 28.4198V28.801H11.2995H11.9446V28.4198V28.0386H11.2995H10.6543V28.4198Z" fill="#8E8E8E"/>
<path d="M12.7075 28.4198V28.801H13.3527H13.9978V28.4198V28.0386H13.3527H12.7075V28.4198Z" fill="#8E8E8E"/>
<path d="M14.7593 28.4139V28.801H15.4044H16.0496V28.4491V28.0972H15.7622C15.6097 28.0972 15.3165 28.0796 15.117 28.062L14.7593 28.021V28.4139Z" fill="#8E8E8E"/>
<path d="M16.8125 28.4434C16.8125 28.7836 16.8184 28.7895 16.9943 28.8247C17.094 28.8423 17.3873 28.8599 17.6395 28.8599H18.1028V28.4786V28.0974H17.4577H16.8125V28.4434Z" fill="#8E8E8E"/>
<path d="M18.8657 28.4786V28.8599H19.5109H20.156V28.4786V28.0974H19.5109H18.8657V28.4786Z" fill="#8E8E8E"/>
<path d="M20.9189 28.508V28.8599H21.5641H22.2093V28.508V28.1561H21.5641H20.9189V28.508Z" fill="#8E8E8E"/>
<path d="M20.126 18.813C19.7155 18.9537 19.2697 19.4112 19.129 19.8218C18.9999 20.2206 19.0293 20.813 19.2052 21.1473C19.3636 21.4581 19.7155 21.7866 20.0381 21.9332C20.3665 22.0857 20.9061 22.0916 21.3049 21.9567C21.7331 21.81 22.173 21.3467 22.302 20.9127C22.5425 20.0798 22.1964 19.2704 21.434 18.8833C21.1055 18.7191 20.5014 18.6839 20.126 18.813ZM21.1583 19.6106C21.8738 20.0916 21.7272 21.0593 20.9061 21.2998C20.3137 21.464 19.6627 20.8247 19.8035 20.2147C19.9442 19.593 20.6539 19.2704 21.1583 19.6106Z" fill="#8E8E8E"/>
</svg>
