<svg width="32" height="31" viewBox="0 0 32 31" fill="none" xmlns="http://www.w3.org/2000/svg">
<path d="M14.7683 0.0679302C12.4603 0.292929 9.80382 1.2147 7.89495 2.47035C5.55059 4.0018 3.7143 6.05583 2.48769 8.51632C1.36269 10.7663 0.869141 12.8712 0.869141 15.4333C0.869141 18.5034 1.6893 21.2978 3.32237 23.7945C8.71511 32.0397 20.2191 33.2446 27.1651 26.2986C29.4224 24.0413 30.8667 21.247 31.4619 17.9881C31.6506 16.9647 31.6941 14.497 31.5417 13.4083C30.9175 8.93003 28.4933 5.05422 24.7482 2.55019C21.8958 0.641317 18.2595 -0.265942 14.7683 0.0679302ZM17.8167 1.33083C22.2296 1.84616 26.1127 4.35019 28.4135 8.15342C29.4006 9.78648 30.0974 11.826 30.3369 13.8002C30.4821 14.9397 30.395 17.0881 30.1627 18.1913C29.0885 23.2429 25.5248 27.2639 20.6837 28.8752C15.7409 30.5155 10.3264 29.3034 6.50866 25.6889C4.40382 23.6857 2.97398 21.1018 2.34253 18.155C2.15382 17.2913 2.14656 17.1026 2.1393 15.4478C2.1393 13.8728 2.16108 13.5752 2.30624 12.8349C3.4385 7.26793 7.45947 3.02196 12.9175 1.65019C14.5433 1.24374 16.1546 1.13486 17.8167 1.33083Z" fill="#8E8E8E"/>
<path d="M15.8655 3.98727C15.6768 4.13243 15.6768 4.13969 15.6768 5.14856C15.6768 6.06308 15.6913 6.17195 15.8219 6.30259C15.9163 6.39695 16.0614 6.44775 16.2574 6.44775C16.4534 6.44775 16.5985 6.39695 16.6929 6.30259C16.8235 6.17195 16.838 6.06308 16.838 5.14856C16.838 4.13969 16.838 4.13243 16.6493 3.98727C16.5405 3.90017 16.3663 3.83485 16.2574 3.83485C16.1485 3.83485 15.9743 3.90017 15.8655 3.98727Z" fill="#8E8E8E"/>
<path d="M20.1683 10.6285L17.2143 13.5826L16.982 13.4955C16.6772 13.3939 15.8353 13.3939 15.5377 13.4955L15.2982 13.5826L13.5417 11.8261C11.807 10.0987 11.7853 10.0769 11.4804 10.0769C11.074 10.0769 10.8853 10.2656 10.8853 10.6721C10.8853 10.9769 10.907 10.9987 12.649 12.7624L14.4199 14.5406L14.3256 14.7947C14.1006 15.4043 14.2603 16.2245 14.703 16.7398C15.4941 17.6616 17.0183 17.6616 17.8094 16.7398C18.2522 16.2245 18.4119 15.4043 18.1869 14.7947L18.0925 14.5406L21.0611 11.5648C23.9861 8.6253 24.0224 8.58175 24.0224 8.29143C24.0224 7.8995 23.7974 7.68175 23.4054 7.68175C23.1296 7.68175 23.0498 7.75433 20.1683 10.6285ZM16.8078 14.8963C16.982 15.0705 17.0546 15.2084 17.0546 15.3753C17.0546 16.0213 16.2998 16.4568 15.8207 16.0793C15.3853 15.7455 15.3417 15.2592 15.7046 14.8963C15.9078 14.693 16.0094 14.6495 16.2562 14.6495C16.503 14.6495 16.6046 14.693 16.8078 14.8963Z" fill="#8E8E8E"/>
<path d="M4.91285 14.9397C4.58624 15.201 4.5935 15.68 4.92737 15.9341C5.10882 16.072 6.88705 16.0574 7.09027 15.9195C7.41689 15.6873 7.35882 15.0413 6.99592 14.8744C6.89431 14.8308 6.43705 14.7945 5.95802 14.7945C5.21043 14.7945 5.07253 14.8163 4.91285 14.9397Z" fill="#8E8E8E"/>
<path d="M25.4946 14.8816C25.1462 15.0486 25.1027 15.6945 25.4221 15.9195C25.6253 16.0574 27.4035 16.072 27.585 15.9341C27.9188 15.68 27.9479 15.2954 27.6575 15.005L27.4471 14.7945L26.5471 14.8018C26.0535 14.8018 25.5817 14.8381 25.4946 14.8816Z" fill="#8E8E8E"/>
<path d="M15.8364 24.5424C15.6913 24.7021 15.6768 24.7819 15.6768 25.6964C15.6768 26.8722 15.7421 27.0247 16.2574 27.0247C16.7727 27.0247 16.838 26.8722 16.838 25.6892C16.838 24.7384 16.8308 24.6803 16.6711 24.5351C16.4389 24.3174 16.0397 24.3247 15.8364 24.5424Z" fill="#8E8E8E"/>
</svg>
