<svg width="30" height="30" viewBox="0 0 30 30" fill="none" xmlns="http://www.w3.org/2000/svg">
<g clip-path="url(#clip0_229_2770)">
<path d="M5.82438 0.993359C4.86715 1.22559 4.01754 1.92793 3.58707 2.84551C3.24723 3.57051 3.24723 3.56484 3.24723 8.48691V12.9785H2.66949C1.97848 12.9785 1.74625 13.0352 1.4234 13.2787C0.885314 13.6809 0.704064 14.4965 1.01559 15.1195C1.15719 15.4084 1.46305 15.7029 1.70094 15.7766C1.81988 15.8162 1.81988 15.8162 1.84254 17.9516C1.8652 20.0529 1.8652 20.0982 2.02379 20.7666C2.23336 21.6502 2.39195 22.092 2.79977 22.9189C3.61539 24.5615 4.9068 25.9152 6.53238 26.8271L7.09879 27.1443V28.0336C7.10445 29.257 7.17242 29.4893 7.60856 29.7838C7.77848 29.9027 7.85778 29.9141 8.58844 29.9141C9.28512 29.9141 9.40406 29.9027 9.59098 29.7951C9.94215 29.5969 10.0611 29.3137 10.0894 28.6L10.1177 27.9883H15.3683H20.6189L20.6472 28.6C20.6755 29.3137 20.7945 29.5969 21.1457 29.7951C21.3326 29.9027 21.4515 29.9141 22.1482 29.9141C22.8789 29.9141 22.9582 29.9027 23.1281 29.7838C23.5642 29.4893 23.6322 29.257 23.6379 28.0336V27.1443L24.1589 26.8498C26.5322 25.5187 28.0898 23.4344 28.7129 20.7666C28.8714 20.0982 28.8714 20.0529 28.8941 17.9516C28.9168 15.8162 28.9168 15.8162 29.0357 15.7766C29.2736 15.7029 29.5795 15.4084 29.7211 15.1195C30.1232 14.3152 29.6871 13.2674 28.8601 13.0352C28.7185 12.9955 24.68 12.9785 16.4615 12.9785H4.26676V12.0439V11.1094H4.71988H5.17301V11.3359C5.17301 11.6928 5.29762 11.9363 5.52985 12.01C5.74508 12.0836 5.88102 12.0496 6.06793 11.8854C6.18688 11.7721 6.19254 11.7437 6.19254 10.5883C6.19254 9.41016 6.19254 9.40449 6.05094 9.26855C5.85836 9.07031 5.52418 9.07598 5.34293 9.26855C5.24098 9.37617 5.20133 9.49512 5.18434 9.75L5.16168 10.0898H4.71422H4.26676V7.18418C4.26676 5.59258 4.28942 4.13691 4.3234 3.95C4.64059 2.00723 6.97985 1.25391 8.36188 2.64726C8.74703 3.03242 8.93395 3.41758 9.01891 4.01797L9.06422 4.3125L8.83199 4.36914C7.84645 4.60703 6.97418 5.50762 6.73063 6.52715C6.59469 7.10488 6.61735 7.34844 6.80992 7.54668L6.97418 7.71094H9.53434C12.1511 7.71094 12.2418 7.70527 12.406 7.49004C12.5023 7.36543 12.4966 6.84434 12.3947 6.47051C12.1341 5.48496 11.3072 4.63535 10.3839 4.39746C10.1007 4.32949 10.1291 4.38047 9.98746 3.57617C9.87985 2.95312 9.58531 2.42637 9.05856 1.89961C8.56578 1.40684 8.14098 1.15762 7.5236 0.999023C7.12711 0.89707 6.23219 0.891405 5.82438 0.993359ZM10.2367 5.43398C10.6048 5.55859 11.0976 6.01172 11.2675 6.37988L11.4035 6.66309L10.4972 6.68008C10.0045 6.68574 9.1775 6.68574 8.66207 6.68008L7.7275 6.66309L7.8691 6.37988C8.32223 5.4793 9.27379 5.0998 10.2367 5.43398ZM28.7072 14.1396C28.8771 14.3039 28.8884 14.5588 28.7412 14.74L28.6336 14.876H15.3683H2.10309L1.99547 14.74C1.8482 14.5588 1.85953 14.3039 2.02945 14.1396L2.16539 13.998H15.3683H28.5713L28.7072 14.1396ZM27.8689 17.9459C27.8406 20.1662 27.8293 20.2965 27.4611 21.401C27.0646 22.6018 26.4246 23.6156 25.4787 24.5672C24.2099 25.8416 22.7373 26.5893 20.9191 26.8895C20.2111 27.0027 10.5255 27.0027 9.81754 26.8895C7.99938 26.5893 6.52672 25.8416 5.25797 24.5672C4.31207 23.6156 3.67203 22.6018 3.27555 21.401C2.90738 20.2965 2.89606 20.1662 2.86774 17.9459L2.83942 15.9238H15.3683H27.8972L27.8689 17.9459ZM8.59977 27.6711L9.05289 27.8014L9.06988 28.3508L9.08688 28.8945H8.59977H8.11832V28.2148C8.11832 27.841 8.12399 27.5352 8.13531 27.5352C8.14098 27.5352 8.35055 27.5975 8.59977 27.6711ZM22.6183 28.2148V28.8945H22.1369H21.6498L21.6668 28.3451L21.6838 27.8014L22.1086 27.6711C22.3408 27.6031 22.5504 27.5465 22.5787 27.5408C22.6013 27.5352 22.6183 27.841 22.6183 28.2148Z" fill="#8E8E8E"/>
</g>
<defs>
<clipPath id="clip0_229_2770">
<rect width="29" height="29" fill="white" transform="translate(0.869141 0.914062)"/>
</clipPath>
</defs>
</svg>
