<svg width="28" height="29" viewBox="0 0 28 29" fill="none" xmlns="http://www.w3.org/2000/svg">
<path d="M0.176534 0.46875C0.00661213 0.638672 -0.010966 0.761719 0.0124715 1.95703L0.0300496 3.05859L0.194112 3.19922C0.346456 3.32812 0.40505 3.33984 1.032 3.33984H1.69997V5.53711V7.73438H1.11403C0.434346 7.73438 0.147237 7.82227 0.0593465 8.05664C-0.0226847 8.26758 -0.0168254 11.6602 0.0593465 11.8711C0.182393 12.1875 0.170675 12.1816 2.31521 12.1875H4.31325L10.4304 18.0293C13.7996 21.2402 17.6375 24.9023 18.9675 26.1738L21.3816 28.4766H24.159H26.9363L27.0593 28.3418C27.1824 28.207 27.1883 28.166 27.1883 26.625C27.1824 25.4766 27.1648 25.0254 27.1121 24.9551C26.9656 24.7676 26.784 24.7266 26.0808 24.7266H25.3718V21.1699V17.6133L25.5359 17.7656C26.0164 18.2168 26.1336 18.1699 27.0652 17.127C27.4812 16.6582 27.8386 16.2129 27.8621 16.1309C27.8797 16.0547 27.8621 15.9199 27.8211 15.832C27.78 15.7441 23.8836 12.2285 19.1726 8.00977L10.6004 0.351562H5.44411C0.393331 0.351562 0.293721 0.351562 0.176534 0.46875ZM18.3933 8.67773L26.6609 16.0664L26.3269 16.4414L25.9871 16.8105L25.8406 16.6758C25.7058 16.5527 10.4949 2.9707 10.0027 2.53711L9.78591 2.34375H5.39138H0.996846V1.81641V1.28906H5.5613H10.1258L18.3933 8.67773ZM16.8875 10.0371L24.3758 16.7285V20.7246V24.7266H24.1121H23.8484V23.6777C23.8484 22.6465 23.8425 22.6172 23.7078 22.459L23.5672 22.2949L22.155 22.2773L20.7429 22.2598V21.0352V19.8105L20.5906 19.6934C20.4441 19.5762 20.3621 19.5703 18.9793 19.5703H17.5203V18.3457C17.5203 17.1973 17.5144 17.1152 17.3972 16.9688L17.28 16.8164H15.6687H14.0633V15.4395V14.0566L13.9168 13.916C13.7761 13.7695 13.7761 13.7695 12.5105 13.7695H11.2508V12.6387C11.2449 11.8477 11.2273 11.4844 11.1746 11.4199C11.0164 11.209 10.8699 11.1914 9.44021 11.1914H8.0281V9.64453V8.0918L7.88747 7.92773L7.74685 7.76367L5.22146 7.74609L2.69607 7.72852V5.53711V3.33984H6.05349L9.40505 3.3457L16.8875 10.0371ZM7.032 10.3125V11.9004L7.17849 12.041L7.31911 12.1875H8.78981H10.2547V13.2715C10.2547 14.4199 10.2898 14.5898 10.53 14.7012C10.6179 14.7422 11.116 14.7656 11.866 14.7656H13.0613L13.0789 16.1426C13.0965 17.4844 13.1023 17.5195 13.2312 17.6484C13.3601 17.7832 13.3894 17.7832 14.9422 17.8008L16.5242 17.8184V18.9844C16.5242 20.2266 16.5535 20.3906 16.7996 20.502C16.8875 20.543 17.4383 20.5664 18.3406 20.5664H19.7468V21.6738C19.7468 22.8164 19.7937 23.1035 19.9812 23.2031C20.0457 23.2383 20.6843 23.2617 21.4695 23.2617H22.8523V24.3457C22.8523 25.4238 22.8523 25.4355 22.9988 25.5762L23.1394 25.7227H24.6687H26.1922V26.6309V27.5391H24.03H21.8738L13.3484 19.4062C8.65505 14.9297 4.77614 11.25 4.72341 11.2324C4.66482 11.209 3.80349 11.1914 2.80739 11.1914H0.996846V9.96094V8.73047H4.01442H7.032V10.3125Z" fill="#8E8E8E"/>
</svg>
