<svg width="31" height="31" viewBox="0 0 31 31" fill="none" xmlns="http://www.w3.org/2000/svg">
<g clip-path="url(#clip0_229_2752)">
<path d="M5.70264 1.55078C5.35107 1.71484 5.13428 1.9375 4.97607 2.28906C4.85889 2.54688 4.85303 2.65234 4.85303 6.64258V10.7266L3.41748 13.5918C2.07568 16.2754 1.97607 16.4629 1.81201 16.498C1.57178 16.5508 1.13818 16.9492 0.991699 17.248C0.868652 17.5 0.868652 17.5469 0.868652 22.9141C0.868652 28.2812 0.868652 28.3281 0.991699 28.5801C1.14404 28.8906 1.57178 29.2773 1.85889 29.3594C1.97607 29.3887 2.55615 29.418 3.15381 29.418C4.12061 29.418 4.26709 29.4004 4.50146 29.2949C4.85303 29.1367 5.07568 28.9199 5.23975 28.5684C5.36865 28.2988 5.38037 28.1992 5.38037 27.3496V26.4297H15.8687H26.3569V27.3496C26.3569 28.1992 26.3687 28.2988 26.4976 28.5684C26.6616 28.9199 26.8843 29.1367 27.2358 29.2949C27.4702 29.4004 27.6167 29.418 28.5835 29.418C29.1812 29.418 29.7612 29.3887 29.8784 29.3594C30.1655 29.2773 30.5933 28.8906 30.7456 28.5801C30.8687 28.3281 30.8687 28.2812 30.8687 22.9141C30.8687 17.5469 30.8687 17.5 30.7456 17.248C30.5991 16.9492 30.1655 16.5508 29.9253 16.498C29.7612 16.4629 29.6616 16.2754 28.3198 13.5918L26.8843 10.7266V6.64258C26.8843 2.65234 26.8784 2.54688 26.7612 2.28906C26.603 1.9375 26.3862 1.71484 26.0347 1.55078L25.7417 1.41016H15.8687H5.99561L5.70264 1.55078ZM25.6831 2.61133L25.8296 2.75195V6.56641V10.375H25.3667H24.9097L24.8687 10.0938C24.7866 9.48438 24.2769 8.81641 23.6733 8.54102C23.4038 8.41211 23.3394 8.41211 20.269 8.39453C17.5386 8.38281 17.105 8.38867 16.8237 8.4707C16.4663 8.57617 16.2729 8.68164 16.0327 8.9043L15.8687 9.05078L15.7104 8.9043C15.4644 8.68164 15.271 8.57617 14.9136 8.4707C14.6323 8.38867 14.1987 8.38281 11.4683 8.39453C8.39795 8.41211 8.3335 8.41211 8.06396 8.54102C7.46045 8.81641 6.95068 9.48438 6.86865 10.0938L6.82764 10.375H6.37061H5.90771V6.56641V2.75195L6.0542 2.61133L6.19482 2.46484H15.8687H25.5425L25.6831 2.61133ZM14.6792 9.50195C14.9019 9.58398 15.1655 9.83594 15.2593 10.0645C15.3589 10.2871 15.3647 11.002 15.2769 11.2363C15.189 11.4707 14.9956 11.6641 14.7261 11.7871C14.5093 11.8867 14.2866 11.8984 11.6499 11.8984C9.9624 11.8984 8.72607 11.875 8.60303 11.8398C8.36279 11.7754 8.05225 11.4824 7.96436 11.2363C7.88232 11.0195 7.88232 10.3105 7.96436 10.0996C8.04639 9.88281 8.29834 9.61914 8.51514 9.51953C8.74365 9.41992 14.4155 9.40234 14.6792 9.50195ZM23.1753 9.50195C23.3979 9.58398 23.6616 9.83594 23.7554 10.0645C23.855 10.2871 23.8608 11.002 23.7729 11.2363C23.6851 11.4824 23.3745 11.7754 23.1343 11.8398C23.0112 11.875 21.7749 11.8984 20.0874 11.8984C17.4507 11.8984 17.228 11.8867 17.0112 11.7871C16.5542 11.5762 16.396 11.2891 16.396 10.668C16.396 10.2051 16.4604 10 16.6772 9.76562C16.9878 9.4375 16.9468 9.44336 20.0991 9.4375C22.021 9.4375 23.064 9.46094 23.1753 9.50195ZM6.9624 11.5879C7.14404 12.0977 7.54248 12.5254 8.04053 12.7598L8.39795 12.9238H11.5913C15.1538 12.9238 15.0483 12.9355 15.6108 12.5078L15.8687 12.3086L16.1265 12.5078C16.689 12.9355 16.5835 12.9238 20.146 12.9238H23.3394L23.6968 12.7598C24.1948 12.5254 24.5933 12.0977 24.7749 11.5879L24.8335 11.4297H25.4312H26.0347L26.6382 12.6309C26.9663 13.293 27.2358 13.8438 27.2358 13.8613C27.2358 13.8789 23.2808 13.8906 18.4468 13.8906H9.65186L9.51123 14.0371C9.32959 14.2129 9.31201 14.5762 9.47607 14.7754L9.5874 14.916L18.6929 14.9336L27.7925 14.9453L28.1616 15.6777L28.5249 16.4102H15.8687H3.2124L3.57568 15.6777L3.94482 14.9453H5.74951H7.56006L7.72998 14.7754C7.9585 14.541 7.9585 14.2949 7.72998 14.0605L7.56006 13.8906H6.03076C5.18701 13.8906 4.50146 13.8789 4.50146 13.8613C4.50146 13.8438 4.771 13.293 5.09912 12.6309L5.70264 11.4297H6.30615H6.90381L6.9624 11.5879ZM29.6792 17.5938L29.814 17.7168V21.5488V25.375H15.8687H1.92334V21.5547V17.7344L2.05225 17.5996L2.17529 17.4648H15.8628H29.5444L29.6792 17.5938ZM4.32568 27.25C4.32568 28.0469 4.31982 28.082 4.1792 28.2168C4.03857 28.3574 4.01514 28.3633 3.11865 28.3633C1.87646 28.3633 1.92334 28.4043 1.92334 27.2676V26.4297H3.12451H4.32568V27.25ZM29.814 27.2617C29.814 28.4102 29.8608 28.3633 28.6304 28.3633C27.7222 28.3633 27.6987 28.3574 27.5581 28.2168C27.4175 28.082 27.4116 28.0469 27.4116 27.25V26.4297H28.6128H29.814V27.2617Z" fill="#8E8E8E"/>
<path d="M3.12451 18.9415C2.8667 19.0938 2.8667 19.088 2.86084 21.4259V23.6583L3.00146 23.7872C3.2417 24.0157 3.68115 23.9571 3.82764 23.6759C3.9624 23.4181 3.95654 19.4161 3.82764 19.1583C3.69287 18.9005 3.37061 18.8009 3.12451 18.9415Z" fill="#8E8E8E"/>
<path d="M5.63232 18.9298C5.33936 19.047 5.32178 19.17 5.32178 21.42C5.32178 23.1544 5.33936 23.5353 5.40967 23.6759C5.55615 23.9571 5.99561 24.0157 6.23584 23.7872L6.37646 23.6583V21.4259C6.37061 19.0763 6.37061 19.0821 6.10107 18.9415C5.95459 18.8595 5.81396 18.8595 5.63232 18.9298Z" fill="#8E8E8E"/>
<path d="M8.15771 18.9297C7.84131 19.0586 7.84131 19.0762 7.84131 21.4082C7.84131 22.8437 7.86475 23.6055 7.90576 23.6875C7.94092 23.752 8.05811 23.8398 8.16943 23.8867C8.33936 23.957 8.39795 23.957 8.56787 23.8867C8.6792 23.8398 8.79639 23.752 8.83154 23.6875C8.87256 23.6055 8.896 22.8379 8.896 21.3965C8.896 19.2344 8.896 19.2285 8.76709 19.082C8.62061 18.9121 8.34521 18.8477 8.15771 18.9297Z" fill="#8E8E8E"/>
<path d="M10.6245 18.9415C10.3667 19.0938 10.3667 19.088 10.3608 21.4259V23.6583L10.5015 23.7872C10.7417 24.0157 11.1812 23.9571 11.3276 23.6759C11.4624 23.4181 11.4565 19.4161 11.3276 19.1583C11.1929 18.9005 10.8706 18.8009 10.6245 18.9415Z" fill="#8E8E8E"/>
<path d="M13.1323 18.9298C12.8394 19.047 12.8218 19.17 12.8218 21.42C12.8218 23.1544 12.8394 23.5353 12.9097 23.6759C13.0562 23.9571 13.4956 24.0157 13.7358 23.7872L13.8765 23.6583V21.4259C13.8706 19.0763 13.8706 19.0821 13.6011 18.9415C13.4546 18.8595 13.314 18.8595 13.1323 18.9298Z" fill="#8E8E8E"/>
<path d="M15.6577 18.9297C15.3413 19.0586 15.3413 19.0762 15.3413 21.4082C15.3413 22.8437 15.3647 23.6055 15.4058 23.6875C15.4409 23.752 15.5581 23.8398 15.6694 23.8867C15.8394 23.957 15.8979 23.957 16.0679 23.8867C16.1792 23.8398 16.2964 23.752 16.3315 23.6875C16.3726 23.6055 16.396 22.8379 16.396 21.3965C16.396 19.2344 16.396 19.2285 16.2671 19.082C16.1206 18.9121 15.8452 18.8477 15.6577 18.9297Z" fill="#8E8E8E"/>
<path d="M18.1245 18.9415C17.8667 19.0938 17.8667 19.088 17.8608 21.4259V23.6583L18.0015 23.7872C18.2417 24.0157 18.6812 23.9571 18.8276 23.6759C18.9624 23.4181 18.9565 19.4161 18.8276 19.1583C18.6929 18.9005 18.3706 18.8009 18.1245 18.9415Z" fill="#8E8E8E"/>
<path d="M20.6323 18.9298C20.3394 19.047 20.3218 19.17 20.3218 21.42C20.3218 23.1544 20.3394 23.5353 20.4097 23.6759C20.5562 23.9571 20.9956 24.0157 21.2358 23.7872L21.3765 23.6583V21.4259C21.3706 19.0763 21.3706 19.0821 21.1011 18.9415C20.9546 18.8595 20.814 18.8595 20.6323 18.9298Z" fill="#8E8E8E"/>
<path d="M23.1577 18.9297C22.8413 19.0586 22.8413 19.0762 22.8413 21.4082C22.8413 22.8437 22.8647 23.6055 22.9058 23.6875C22.9409 23.752 23.0581 23.8398 23.1694 23.8867C23.3394 23.957 23.3979 23.957 23.5679 23.8867C23.6792 23.8398 23.7964 23.752 23.8315 23.6875C23.8726 23.6055 23.896 22.8379 23.896 21.3965C23.896 19.2344 23.896 19.2285 23.7671 19.082C23.6206 18.9121 23.3452 18.8477 23.1577 18.9297Z" fill="#8E8E8E"/>
<path d="M25.6245 18.9415C25.3667 19.0938 25.3667 19.088 25.3608 21.4259V23.6583L25.5015 23.7872C25.7417 24.0157 26.1812 23.9571 26.3276 23.6759C26.4624 23.4181 26.4565 19.4161 26.3276 19.1583C26.1929 18.9005 25.8706 18.8009 25.6245 18.9415Z" fill="#8E8E8E"/>
<path d="M28.1323 18.9298C27.8394 19.047 27.8218 19.17 27.8218 21.42C27.8218 23.1544 27.8394 23.5353 27.9097 23.6759C28.0562 23.9571 28.4956 24.0157 28.7358 23.7872L28.8765 23.6583V21.4259C28.8706 19.0763 28.8706 19.0821 28.6011 18.9415C28.4546 18.8595 28.314 18.8595 28.1323 18.9298Z" fill="#8E8E8E"/>
</g>
<defs>
<clipPath id="clip0_229_2752">
<rect width="30" height="30" fill="white" transform="translate(0.868652 0.414062)"/>
</clipPath>
</defs>
</svg>
